<svg xmlns="http://www.w3.org/2000/svg" xml:space="preserve" style="enable-background:new 0 0 445.6 192.3" viewBox="0 0 445.6 192.3">
	<path d="M172.8 77.9c0 2.3-.9 4.1-2.8 5.3-1.6 1-3.6 1.6-6 1.6s-4.3-.5-5.7-1.5c-1.6-1.2-2.5-2.9-2.6-5.1h3.2c.1 1.5.7 2.6 1.7 3.3.9.7 2.1 1 3.6 1s2.7-.3 3.8-1c1.2-.8 1.8-1.8 1.8-3.2 0-1.4-.8-2.5-2.4-3.4-.5-.2-1.9-.7-4.2-1.5-2.1-.7-3.7-1.3-4.6-2-1.4-1.1-2.1-2.5-2.1-4.3 0-2.2.9-3.8 2.6-5 1.5-1 3.4-1.5 5.7-1.5 2.2 0 4 .4 5.3 1.3 1.6 1 2.4 2.6 2.4 4.7h-3.1c-.2-2.4-1.8-3.6-4.7-3.6-1.4 0-2.5.3-3.5.9-1.1.7-1.7 1.7-1.7 3 0 1.2.7 2.2 2.1 2.9.3.2.8.4 1.6.7.8.3 1.8.6 3 1 2.2.8 3.8 1.5 4.6 2.1 1.3.9 2 2.4 2 4.3zM182.9 84.5h-1.2c-2.7 0-4-1.3-4-3.8V70h-3.2v-2h3.2v-3.2l2.9-1.2V68h3.7v2h-3.7v9.7c0 1 .1 1.7.4 2.1.3.5.9.7 1.9.7.2 0 .4 0 .8-.1.3-.1.6-.1.7-.1v2.2c-.6-.1-1 0-1.5 0zM198.1 84.4c0-.2-.1-.5-.1-.9s-.1-.8-.2-1.4c-1.2 1.8-3.1 2.6-5.6 2.6-1.6 0-3-.4-4-1.1-1.2-.9-1.7-2.1-1.7-3.7 0-3.7 3.1-5.5 9.4-5.5H197.6v-1c0-2.6-1.2-4-3.6-4-2.1 0-3.2 1-3.4 2.9h-2.8c.1-1.7.7-2.9 2-3.7 1.1-.7 2.5-1 4.2-1 2.2 0 3.8.5 4.8 1.4 1 .9 1.5 2.4 1.5 4.5v6.1c0 2.1.2 3.8.5 4.8h-2.7zm-.6-8.2c-1-.1-1.4-.1-1.5-.1-4.5 0-6.7 1.2-6.7 3.6 0 1 .4 1.7 1.1 2.3.7.5 1.5.8 2.5.8 1.9 0 3.2-.7 3.8-2.1.6-.8.8-2.4.8-4.5zM216.2 84.4l-.2-2.5c-1.3 1.8-3.1 2.8-5.3 2.8-2.3 0-4.2-.9-5.5-2.6-1.1-1.6-1.7-3.6-1.7-6 0-2.3.6-4.2 1.7-5.8 1.3-1.7 3.1-2.6 5.4-2.6 2.4 0 4.2 1 5.4 2.9v-9.7h2.9v18.7c0 2.4 0 4 .1 4.8h-2.8zm-.1-8.2c0-1.8-.4-3.3-1.1-4.4-.9-1.4-2.1-2.1-3.8-2.1-1.6 0-2.8.7-3.6 2.1-.6 1.1-.9 2.6-.9 4.3 0 1.8.4 3.3 1.1 4.4.8 1.4 2.1 2 3.8 2 1.6 0 2.8-.7 3.6-2.1.6-1 .9-2.4.9-4.2zM230.2 84.5H229c-2.7 0-4-1.3-4-3.8V70h-3.2v-2h3.2v-3.2l2.9-1.2V68h3.7v2h-3.7v9.7c0 1 .1 1.7.4 2.1.3.5.9.7 1.9.7.2 0 .4 0 .8-.1.3-.1.6-.1.7-.1v2.2c-.6-.1-1 0-1.5 0zM261.6 84.4l-2.4-6.2h-11.4l-2.4 6.2h-3.1l9.6-23.5h3.4l9.9 23.5h-3.6zm-8.3-20.9c-.7 1.6-1.5 3.7-2.4 6.2-.4 1-.7 2.1-1.1 3.1-.4 1-.8 2.1-1.1 3.1h9.6l-5-12.4zM278.8 84.4l-.1-2.6c-1.3 1.8-3.1 2.8-5.3 2.8-2.1 0-3.7-.6-4.6-1.7-.9-1-1.3-2.6-1.3-4.7V68h2.9v9.1c0 1.8.2 3 .6 3.7.5 1.1 1.6 1.6 3.2 1.6 3 0 4.5-1.9 4.5-5.8V68h2.9v16.4h-2.8zM300.8 69.9v9.8c0 3.8-.4 6.5-1.1 7.9-1.1 2.1-3.3 3.2-6.7 3.2-4.5 0-6.8-1.7-6.8-5h2.8c0 2 1.3 3.1 4 3.1 1.6 0 2.8-.4 3.6-1.3.7-.8 1.1-2 1.2-3.6v-2.7c-1.3 1.9-3.1 2.9-5.4 2.9-2.3 0-4.2-.8-5.5-2.4-1.2-1.5-1.8-3.4-1.8-5.8 0-2.3.6-4.3 1.8-5.8 1.3-1.7 3.1-2.5 5.4-2.5 2.5 0 4.3 1 5.6 3.1V68h2.9c.1.4 0 1 0 1.9zm-2.9 5.9c0-1.6-.4-3-1.1-4.2-.9-1.3-2.1-2-3.7-2-1.7 0-2.9.7-3.8 2.1-.7 1.2-1.1 2.6-1.1 4.4 0 1.7.4 3.2 1.1 4.3.9 1.3 2.1 2 3.8 2 1.7 0 2.9-.7 3.8-2.1.7-1.2 1-2.7 1-4.5zM317.6 79.7c0 1.7-.7 3.1-2.1 4-1.2.7-2.7 1.1-4.6 1.1-4.3 0-6.4-1.8-6.4-5.3h2.9c.2 2.2 1.4 3.4 3.7 3.4 1 0 1.8-.2 2.5-.7.8-.5 1.2-1.2 1.2-2.1 0-1-.6-1.8-1.8-2.3-.4-.2-1.4-.5-3.1-.9-1.5-.4-2.6-.9-3.4-1.4-1-.7-1.6-1.8-1.6-3.1 0-1.6.7-2.8 2-3.6 1.1-.7 2.5-1.1 4.2-1.1 3.9 0 5.9 1.7 6 5h-2.8c-.1-2-1.2-3-3.3-3-.9 0-1.6.2-2.2.6-.8.5-1.1 1.1-1.1 1.9 0 .9.5 1.6 1.5 2.1.4.2 1.6.6 3.4 1 .8.2 1.5.4 2 .7.6.2 1 .5 1.4.8 1.1.5 1.6 1.5 1.6 2.9zM336.7 76c0 2.5-.6 4.5-1.8 6.1-1.3 1.8-3.2 2.7-5.5 2.7-2.1 0-3.8-.9-5.2-2.8l-.2 2.5h-2.8c.1-.9.1-2.5.1-4.8V60.9h2.9v9.9c1.3-2.1 3.1-3.1 5.5-3.1 2.3 0 4 .8 5.3 2.5 1.2 1.5 1.7 3.4 1.7 5.8zm-3 .2c0-1.7-.3-3.2-1-4.3-.8-1.4-2-2.1-3.6-2.1-1.7 0-3 .7-3.8 2.1-.7 1.1-1.1 2.6-1.1 4.4 0 1.8.3 3.2 1 4.3.8 1.4 2 2.1 3.6 2.1 1.7 0 3-.7 3.8-2 .7-1.2 1.1-2.7 1.1-4.5zM351.7 84.4l-.1-2.6c-1.3 1.8-3.1 2.8-5.3 2.8-2.1 0-3.7-.6-4.6-1.7-.9-1-1.3-2.6-1.3-4.7V68h2.9v9.1c0 1.8.2 3 .6 3.7.5 1.1 1.6 1.6 3.2 1.6 3 0 4.5-1.9 4.5-5.8V68h2.9v16.4h-2.8zM367.2 70.6h-.7c-3 0-4.5 1.7-4.5 5v8.8h-2.9V72.8c0 .3 0-1.3-.1-4.8h2.8l.1 2.6c1.1-1.8 2.8-2.7 5-2.7h1v2.7h-.7zM385 69.9v9.8c0 3.8-.4 6.5-1.1 7.9-1.1 2.1-3.3 3.2-6.7 3.2-4.5 0-6.8-1.7-6.8-5h2.8c0 2 1.3 3.1 4 3.1 1.6 0 2.8-.4 3.6-1.3.7-.8 1.1-2 1.2-3.6v-2.7c-1.3 1.9-3.1 2.9-5.4 2.9-2.3 0-4.2-.8-5.5-2.4-1.2-1.5-1.8-3.4-1.8-5.8 0-2.3.6-4.3 1.8-5.8 1.3-1.7 3.1-2.5 5.4-2.5 2.5 0 4.3 1 5.6 3.1V68h2.9c.1.4 0 1 0 1.9zm-2.9 5.9c0-1.6-.4-3-1.1-4.2-.9-1.3-2.1-2-3.7-2-1.7 0-2.9.7-3.8 2.1-.7 1.2-1.1 2.6-1.1 4.4 0 1.7.4 3.2 1.1 4.3.9 1.3 2.1 2 3.8 2 1.7 0 2.9-.7 3.8-2.1.7-1.2 1-2.7 1-4.5zM67.27994 66.9146l6.0095-6.0112 6.0112 6.0095-6.0095 6.0112zM67.24164 79.93l6.0095-6.0112 6.0112 6.0095-6.0095 6.0112zM79.8 79.4l-6-6 6-6c1 1 2.5 2.8 3.5 4.4.7 1.1 1.3 2.3 1.5 2.6l-5 5zM66.7 79.4l6-6-6-6c-1 1-2.5 2.8-3.5 4.4-.7 1.1-1.3 2.3-1.5 2.6l5 5zM68.5 91.7c3 1.2 6.4 1.2 9.4 0L73.2 87l-4.7 4.7zM61.4 84.7l4.7-4.7-4.7-4.7c-1.2 2.9-1.2 6.3 0 9.4zM61.8 85.4c.6 1.3 1.4 2.5 2.5 3.5 1 1 2.2 1.9 3.5 2.5l4.9-4.9-6-6-4.9 4.9zM85 75.2l-4.7 4.7 4.7 4.7c1.2-3 1.2-6.4 0-9.4zM73.8 86.5l4.9 4.9c1.3-.6 2.5-1.4 3.5-2.5 1-1 1.9-2.2 2.5-3.5l-4.9-4.9-6 6z"/>
	<path d="M102.9 69.4c-.2.9-.6 1.9-1 2.9-.4 1.1-22.2 59.4-22.2 59.4h6.7s7.5-21.1 8.3-23.5h26.9l-1.5-4.1h-24l12.1-32.4s-1.1-4.5-3.7-6.9c-2.1-1.9-6-1.7-6-1.7 5.2.6 4.9 4.4 4.4 6.3z" style="fill:#999"/>
	<path d="M94 60.9h19.2l27.1 70.9H130s-21.7-59.2-21.7-59.4c-.1-.2-.4-1-1.1-2.8-2.3-5.7-7.1-6.3-10.2-6.3h-3v-2.4z"/>
</svg>