<svg xmlns="http://www.w3.org/2000/svg" xml:space="preserve" id="Ebene_1" x="0" y="0" style="enable-background:new 0 0 200 206.6" version="1.1" viewBox="0 0 200 206.6">
	<path fill="#ffffff" d="M63.1 51.1c1.5 17.5 10.8 24.5 24.8 22.6 1.5-7.7.8-15.2-2.5-16.6-3.1-1.4-17.4-2.5-22.3-6zM132.1 50.9c-4.8 3.5-19.1 4.6-22.4 6-3.2 1.4-3.9 8.9-2.5 16.6 14.1 1.8 23.4-5.1 24.9-22.6z" class="st0"/>
	<path fill="#ffffff" d="M17.9 152.5c0 2.4-.9 4.5-2.6 6 1.7 1.5 2.6 3.7 2.6 6v3.4c0 4.6-3.7 8.3-8.3 8.3h-6c-1.3 0-2.3-1.1-2.3-2.3v-31c0-1.3 1-2.3 2.3-2.3h6c4.5 0 8.3 3.7 8.3 8.3v3.6zm-4.6-3.4c0-2.1-1.7-3.7-3.7-3.7H5.9v10.8h3.7c2 0 3.7-1.7 3.7-3.7v-3.4zm-3.7 11.7H5.9v10.8h3.7c2 0 3.7-1.7 3.7-3.7v-3.4c0-2.1-1.7-3.7-3.7-3.7zM39.4 172.8v2.3c0 .6-.5 1.2-1.2 1.2h-8.5c-1.3 0-2.3-1.1-2.3-2.3v-32.1c0-.6.5-1.2 1.1-1.2h2.3c.6 0 1.2.5 1.2 1.2v29.8h6.2c.7 0 1.2.5 1.2 1.1zM62.6 141.9V168c0 4.6-3.7 8.3-8.3 8.3-4.6 0-8.3-3.7-8.3-8.3v-26.1c0-.6.6-1.2 1.1-1.2h2.3c.6 0 1.1.5 1.1 1.2V168c0 2.1 1.7 3.7 3.7 3.7s3.7-1.7 3.7-3.7v-26.1c0-.6.5-1.2 1.2-1.2h2.3c.7 0 1.2.5 1.2 1.2zM76.8 145.3v10.8H83c.6 0 1.1.5 1.1 1.1v2.3c0 .6-.5 1.1-1.1 1.1h-6.2v10.9H83c.6 0 1.1.5 1.1 1.2v2.3c0 .6-.5 1.2-1.1 1.2h-8.5c-1.3 0-2.3-1.1-2.3-2.3v-31c0-1.3 1-2.3 2.3-2.3H83c.6 0 1.1.5 1.1 1.2v2.3c0 .6-.5 1.2-1.1 1.2h-6.2zM102.8 151.4V149c0-2-1.7-3.7-3.7-3.7s-3.7 1.7-3.7 3.7c0 .9 0 .9.2 1.2l10 13.2c1.7 2.3 1.7 2.3 1.7 4.6 0 4.5-3.7 8.3-8.3 8.3-4.5 0-8.3-3.7-8.3-8.3v-2.4c0-.6.5-1.1 1.1-1.1h2.3c.6 0 1.2.5 1.2 1.1v2.4c0 2 1.7 3.7 3.7 3.7s3.7-1.7 3.7-3.7c0-.9 0-.9-.2-1.2l-10-13.2c-1.7-2.3-1.7-2.3-1.7-4.6 0-4.5 3.7-8.3 8.3-8.3 4.5 0 8.3 3.7 8.3 8.3v2.4c0 .6-.5 1.2-1.2 1.2H104c-.7 0-1.2-.5-1.2-1.2zM132.8 149v3.4c0 4.6-3.7 8.3-8.3 8.3h-3.7v14.4c0 .6-.5 1.2-1.2 1.2h-2.3c-.6 0-1.1-.6-1.1-1.2v-33.3c0-.6.6-1.2 1.1-1.2h7.2c4.6.1 8.3 3.9 8.3 8.4zm-4.6 0c0-2-1.7-3.7-3.7-3.7h-3.7v10.8h3.7c2 0 3.7-1.7 3.7-3.7V149zM157.5 149v19c0 4.6-3.7 8.3-8.3 8.3-4.6 0-8.3-3.7-8.3-8.3v-19c0-4.5 3.7-8.3 8.3-8.3 4.5 0 8.3 3.8 8.3 8.3zm-4.6 0c0-2-1.7-3.7-3.7-3.7-2.1 0-3.7 1.7-3.7 3.7v19c0 2.1 1.7 3.7 3.7 3.7s3.7-1.7 3.7-3.7v-19zM177.5 141.9v2.3c0 .6-.5 1.2-1.2 1.2h-3.2v29.8c0 .6-.5 1.2-1.2 1.2h-2.3c-.6 0-1.2-.6-1.2-1.2v-29.8h-3.2c-.6 0-1.1-.5-1.1-1.2v-2.3c0-.6.5-1.2 1.1-1.2h11.1c.7 0 1.2.5 1.2 1.2zM195.4 151.4V149c0-2-1.7-3.7-3.7-3.7S188 147 188 149c0 .9 0 .9.2 1.2l10 13.2c1.7 2.3 1.7 2.3 1.7 4.6 0 4.5-3.7 8.3-8.3 8.3-4.5 0-8.3-3.7-8.3-8.3v-2.4c0-.6.5-1.1 1.1-1.1h2.3c.6 0 1.2.5 1.2 1.1v2.4c0 2 1.7 3.7 3.7 3.7s3.7-1.7 3.7-3.7c0-.9 0-.9-.2-1.2l-10-13.2c-1.7-2.3-1.7-2.3-1.7-4.6 0-4.5 3.7-8.3 8.3-8.3 4.5 0 8.3 3.7 8.3 8.3v2.4c0 .6-.5 1.2-1.2 1.2h-2.3c-.6 0-1.1-.5-1.1-1.2zM9 191.7v1.9c0 2.5-2 4.5-4.5 4.5h-2v7.8c0 .3-.3.6-.6.6H.6c-.3 0-.6-.3-.6-.6v-18.1c0-.4.3-.6.6-.6h3.9c2.5 0 4.5 2.1 4.5 4.5zm-2.5 0c0-1.1-.9-2-2-2h-2v5.9h2c1.1 0 2-.9 2-2v-1.9zM28.1 193.6c0 1.3-.5 2.5-1.4 3.3.9.8 1.4 2 1.4 3.2v5.8c0 .3-.3.6-.6.6h-1.3c-.4 0-.6-.3-.6-.6v-5.8c0-1.1-.9-2-2-2h-2v7.8c0 .3-.3.6-.6.6h-1.3c-.4 0-.6-.3-.6-.6v-17.5c0-.7.5-1.3 1.3-1.3h3.2c2.5 0 4.5 2 4.5 4.5v2zm-2.5-1.9c0-1.1-.9-2-2-2h-2v5.9h2c1.1 0 2-.9 2-2v-1.9zM48.2 191.7V202c0 2.5-2 4.5-4.5 4.5s-4.5-2-4.5-4.5v-10.3c0-2.5 2-4.5 4.5-4.5s4.5 2.1 4.5 4.5zm-2.5 0c0-1.1-.9-2-2-2s-2 .9-2 2V202c0 1.1.9 2 2 2s2-.9 2-2v-10.3zM68.4 191.8v10.3c0 2.5-2 4.5-4.5 4.5h-3.3c-.7 0-1.3-.6-1.3-1.3v-16.9c0-.7.6-1.3 1.3-1.3h3.3c2.5.1 4.5 2.2 4.5 4.7zm-2.5 0c0-1.1-.9-2-2-2h-2v14.3h2c1.1 0 2-.9 2-2v-10.3zM88.5 187.9v14.2c0 2.5-2 4.5-4.5 4.5s-4.5-2-4.5-4.5v-14.2c0-.4.3-.6.6-.6h1.3c.4 0 .6.3.6.6v14.2c0 1.1.9 2 2 2s2-.9 2-2v-14.2c0-.4.3-.6.6-.6h1.3c.3-.1.6.2.6.6zM106.1 193.1v-1.3c0-1.1-.9-2-2-2s-2 .9-2 2v10.4c0 1.1.9 2 2 2s2-.9 2-2v-1.4c0-.4.3-.6.6-.6h1.3c.4 0 .6.3.6.6v1.4c0 2.5-2 4.5-4.5 4.5s-4.5-2-4.5-4.5v-10.4c0-2.5 2-4.5 4.5-4.5s4.5 2 4.5 4.5v1.3c0 .4-.3.6-.6.6h-1.3c-.4 0-.6-.3-.6-.6zM125 187.9v1.3c0 .4-.3.6-.6.6h-1.8V206c0 .3-.3.6-.6.6h-1.3c-.4 0-.6-.3-.6-.6v-16.2h-1.8c-.4 0-.6-.3-.6-.6v-1.3c0-.4.3-.6.6-.6h6c.4-.1.7.2.7.6zM137.6 206c0 .4-.3.6-.6.6h-1.3c-.4 0-.6-.3-.6-.6v-18.1c0-.4.3-.6.6-.6h1.3c.3 0 .6.3.6.6V206zM157.7 191.7V202c0 2.5-2 4.5-4.5 4.5s-4.5-2-4.5-4.5v-10.3c0-2.5 2-4.5 4.5-4.5s4.5 2.1 4.5 4.5zm-2.5 0c0-1.1-.9-2-2-2s-2 .9-2 2V202c0 1.1.9 2 2 2s2-.9 2-2v-10.3zM177.9 191.7V206c0 .3-.3.6-.6.6H176c-.4 0-.6-.3-.6-.6v-14.2c0-1.1-.9-2-2-2s-2 .9-2 2V206c0 .3-.3.6-.6.6h-1.3c-.4 0-.6-.3-.6-.6v-14.2c0-2.5 2-4.5 4.5-4.5 2.4-.1 4.5 2 4.5 4.4zM195 193.1v-1.3c0-1.1-.9-2-2-2s-2 .9-2 2c0 .5 0 .5.1.7l5.4 7.2c.9 1.3.9 1.3.9 2.5 0 2.5-2 4.5-4.5 4.5s-4.5-2-4.5-4.5v-1.3c0-.4.3-.6.6-.6h1.3c.4 0 .6.3.6.6v1.3c0 1.1.9 2 2 2s2-.9 2-2c0-.5 0-.5-.1-.7l-5.4-7.2c-.9-1.3-.9-1.3-.9-2.5 0-2.5 2-4.5 4.5-4.5s4.5 2 4.5 4.5v1.3c0 .4-.3.6-.6.6h-1.3c-.3 0-.6-.3-.6-.6zM151.9 53c-3.7-28.4-28.6-48.9-56.8-47.7 0 .1 0 .2.1.3 1.9 11.3 1.9 69.6-1.6 76.2-18.3 0-39.8-9.5-33.9-15-2.9-1.5-6.3-5.8-1.9-6.7-2.8-1.6-7-6.8-2.7-8.3-2.7-2-6.9-7-4.9-10.2 2-3.1 11.1-.5 15.5 3.1-2.3-4 6-2.2 7.5 0 2.1-6.6 13.3 3.4 15.7 9.1 2.3-12.7 3.9-34.9 4-48.4l-2.7.3c-30 4-51.1 31.5-47.2 61.6 3.8 28.8 29.2 49.4 57.8 47.6-.4-6.4-1.3-28.9-1.3-33.9-.7-40.6 16.8-41.6 22.4-36.4 1.5-2.2 9.8-4 7.5 0 4.4-3.6 13.4-6.2 15.5-3.1 2.1 3.1-2.2 8.2-4.9 10.2 4.3 1.5.1 6.7-2.7 8.3 4.4.9.9 5.2-1.9 6.7 5.5 5.2-11.9 13.8-29.2 14.9-.7 0-2.4 26.9-3.3 33.3.6-.1 1.2-.1 1.7-.2 30.1-4.1 51.2-31.7 47.3-61.7z" class="st0"/>
	<path fill="#ffffff" d="M97.5 120.3c-33.2 0-60.1-27-60.1-60.1C37.3 27 64.3 0 97.5 0s60.1 27 60.1 60.1c0 33.2-27 60.2-60.1 60.2zm0-117.5c-31.6 0-57.4 25.7-57.4 57.4 0 31.6 25.7 57.4 57.4 57.4s57.4-25.7 57.4-57.4c-.1-31.7-25.8-57.4-57.4-57.4z" class="st0"/>
</svg>