<svg xmlns="http://www.w3.org/2000/svg" id="Ebene_1" viewBox="0 0 352.01 90.16">
	<defs>
		<style>.cls-1,.cls-2,.cls-5,.cls-6{stroke-width:0}.cls-2{fill:#f8d200}.cls-5{fill:#1d1d1b}.cls-6{fill:#e30613}</style>
	</defs>
	<path d="M32.93 30.16v20h-3.5v-20h3.5z" class="cls-1"/>
	<path d="M32.93 50.16v20h-3.5v-20h3.5z" class="cls-6"/>
	<path d="M32.93 70.16v20h-3.5v-20h3.5z" class="cls-2"/>
	<path d="M20.32 37.15c1.02 1.62 1.83 1.59 3.04 1.59-1-.77-1.66-1.75-1.98-2.25l-1.87-2.99c-.18-.92-.66-1.79-1.38-2.43.24-.09.44-.19.56-.28-1.22 0-2.43-.62-3.1-.62-.43 0-.7.26-.7.59.03.38.42.76 1.13.76.16 0 .37-.02.6-.06.39.54.7 1.03.7 1.73 0 1.31-1.57 2.33-3.15 2.33-.09 0-.17 0-.26-.01-.14-.32-.62-.87-.62-1.49 0-1.04.68-1.89.68-2.92 0-.64-.31-1.04-.43-1.2.19-.18.41-.4.46-.55-.11.05-.25.06-.44.06-.76 0-1.38-.2-1.98-.2-.34 0-.44.11-.44.21 0 .04 0 .07.02.09-.13-.05-.25-.08-.39-.11-.18-.03-.37-.05-.57-.05-.73 0-.99.31-.99.57 0 .22.18.63.37.94.29-.14.63-.24.78-.24.39 0 .73.37.92.81-.26.03-.31.04-.58.04-.71 0-1.2-.26-1.3-.26 0 0-.03 0-.03.02 0 .1.2.36.6.51.52.19 1.31.27 1.44.29 0 .02-.13.27-.28.32-.03.01-.06.01-.09 0-.55-.11-.7-.15-1.4-.42-.02 0-.03 0-.03.03 0 .27.71.88 1.35 1.11-.53.68-1.2 1.38-1.51 2.44-.09 0-.17.01-.26.01-1.58 0-3.15-1.02-3.15-2.33 0-.7.31-1.19.7-1.73.23.04.44.06.6.06.72 0 1.1-.38 1.13-.76 0-.34-.28-.59-.7-.59-.67 0-1.87.62-3.1.62.12.09.32.19.56.28-.72.64-1.19 1.51-1.38 2.43l-1.87 2.99c-.31.5-.98 1.48-1.98 2.25 1.21 0 2.01.03 3.04-1.59L4 35.62c.07.2.16.39.26.58l-1.91 3.05c-.32.51-.97 1.48-1.98 2.25 1.21 0 2.01.03 3.04-1.59l1.64-2.63c.12.13.25.26.39.38l-2.32 3.71c-.32.51-.97 1.48-1.98 2.25 1.21 0 2.01.03 3.04-1.59l2.26-3.62c.15.09.3.19.46.27l-2.76 4.41c-.32.51-.97 1.48-1.98 2.25 1.21 0 2.01.03 3.04-1.59l2.84-4.54c.17.06.34.13.51.18l-3.21 5.13c-.31.5-.98 1.49-1.98 2.25 1.21 0 2.01.03 3.04-1.59l3.42-5.47s.07.01.1.02c.09.3.16.57.16.85 0 1.72-1.13 3.24-2.48 4.41.09.04.24.05.38.05.28 0 .46-.01.59-.04-.31.71-.99 1.63-1.33 2.11-.44-.08-1.09-.14-1.51-.14s-.49.26-.49.49c0 .4.19.72.41.9.08-.21.25-.48 1.06-.48h.08c-.24.27-.99.87-.99 1.36 0 .32.35.8.82.8-.03-.1-.02-.2-.02-.27 0-.39.35-.86.64-1.18v.2c0 .93.08 1.36.68 1.36.29 0 .49-.16.56-.21-.38-.35-.4-.63-.4-1.15v-.45c0-.12 0-.28-.02-.39.21-.03.3-.03.46-.03 0 0 .84-.07 1.04.37.23-.21.56-.5.56-.83 0-.21-.1-.46-.53-.46-.16 0-.68.1-1.11.1.12-.26.63-1.01 1.08-1.56.07.21.17.44.41.63.03-.35.24-1.46.79-2.12.06.44.15.89.15 1.84 0 2.31-.56 4.02-1.74 4.35.15.27.48.51.82.51.43 0 .67-.49.91-.95.12.34.47 1.17.82 1.17s.69-.83.82-1.17c.24.46.48.95.91.95.34 0 .66-.24.82-.51-1.18-.33-1.74-2.04-1.74-4.35 0-.95.09-1.4.15-1.84.55.65.76 1.76.79 2.12.23-.19.34-.42.41-.63.45.55.96 1.3 1.08 1.56-.43 0-.95-.1-1.11-.1-.43 0-.53.24-.53.46 0 .33.33.62.56.83.2-.44 1.04-.37 1.04-.37.16 0 .25 0 .46.03-.02.11-.02.27-.02.39v.45c0 .52-.02.8-.4 1.15.07.05.27.21.56.21.59 0 .68-.43.68-1.36v-.2c.29.32.64.78.64 1.18 0 .07 0 .17-.02.27.47 0 .82-.48.82-.8 0-.49-.75-1.09-.99-1.36h.08c.82 0 .98.27 1.06.48.22-.18.41-.5.41-.9 0-.23-.05-.49-.49-.49s-1.07.06-1.51.14c-.34-.48-1.01-1.4-1.33-2.11.13.02.31.04.59.04.14 0 .29-.01.38-.05-1.35-1.17-2.48-2.69-2.48-4.41 0-.28.07-.55.16-.85.03 0 .07-.01.1-.02l3.42 5.47c1.02 1.62 1.83 1.59 3.04 1.59-1-.76-1.67-1.75-1.98-2.25l-3.21-5.13.51-.18 2.84 4.54c1.02 1.62 1.83 1.59 3.04 1.59-1.01-.77-1.66-1.74-1.98-2.25l-2.76-4.41c.16-.09.31-.18.46-.27l2.26 3.62c1.02 1.62 1.83 1.59 3.03 1.59-1.01-.77-1.66-1.74-1.98-2.25l-2.32-3.71c.14-.12.27-.25.39-.38l1.64 2.63c1.02 1.62 1.83 1.59 3.04 1.59-1.01-.77-1.66-1.75-1.98-2.25l-1.91-3.05c.1-.19.19-.38.26-.58l.96 1.53ZM5.01 33.64c0-1.14.83-2.04 1.12-2.3.07.02.14.03.21.05-.31.38-.86 1.01-.86 1.85 0 1.67 1.78 3.12 3.8 3.12-.01.14-.02.29-.02.45 0 .25.01.48.04.69-2.28-.01-4.29-1.87-4.29-3.86ZM8.1 47.31v.04h.03c.64 0 .95-.05 1.16-.08.11-.01.19-.03.27-.03.17 0 .29.02.29.22 0 .14-.16.35-.32.48-.24-.22-.56-.27-1.04-.27-.22 0-.52.04-.68.06h-.05v.08c.03.13.05.3.05.52v.45c0 .54.07.85.27 1.09-.05.02-.13.03-.18.03-.34 0-.44-.15-.44-1.12 0-.2-.01-.38-.02-.5v-.18l-.05.03c-.5.38-1.02 1.07-1.05 1.58-.15-.1-.31-.32-.31-.48 0-.28.42-.7.91-1.18l.28-.28.04-.04-.09-.02c-.1-.03-.3-.08-.46-.08-.55 0-.89.1-1.1.33-.08-.11-.14-.36-.14-.51 0-.1.02-.17.06-.2.05-.05.12-.05.19-.05h.01c.6 0 1.32.11 1.6.15h.03c.05-.07 1.19-1.59 1.49-2.4.07-.03.13-.04.25-.04.23 0 .29.15.35.38-.72.87-1.16 1.55-1.32 2.01Zm6.17-2.39c.12 0 .18.02.25.04.3.81 1.44 2.33 1.49 2.4h.03c.28-.04 1-.15 1.6-.15h.01c.07 0 .14 0 .19.05.04.04.06.11.06.2 0 .15-.06.4-.14.51-.21-.23-.55-.33-1.1-.33-.16 0-.36.05-.46.08h-.04l-.05.02.32.32c.49.49.91.9.91 1.18 0 .17-.16.39-.31.48-.03-.51-.55-1.2-1.05-1.58l-.04-.03v.18c-.02.12-.03.31-.03.5 0 .97-.1 1.12-.44 1.12-.05 0-.13-.01-.18-.03.19-.23.27-.54.27-1.09v-.45c0-.22.02-.39.04-.52v-.08h-.04c-.16-.02-.45-.06-.68-.06-.48 0-.81.04-1.04.27-.16-.13-.32-.34-.32-.48 0-.2.13-.22.29-.22.08 0 .16.01.27.03.21.03.52.08 1.16.08h.04v-.04c-.17-.46-.62-1.14-1.34-2.01.06-.23.13-.38.35-.38Zm-2.65-13.3c-.07-.3-.22-.6-.42-.83-.18-.21-.47-.45-.86-.45-.18 0-.48.08-.67.16-.07-.13-.21-.44-.21-.58s.25-.29.71-.29c1.03 0 1.65.47 1.65 1.25 0 .27-.11.52-.21.75Zm.46-1.02c-.04-.22-.12-.42-.25-.59 0-.2.09-.4.41-.24-.18.18-.04.5-.04.5s.36-.17.29-.4c.53.13.15.84-.41.73Zm2.01 6.9c.03-.22.04-.46.04-.69 0-.13 0-.28-.01-.45 1.99-.03 3.74-1.46 3.74-3.12 0-.84-.55-1.47-.86-1.85.07-.01.14-.03.21-.05.29.25 1.12 1.16 1.12 2.3 0 1.98-1.98 3.82-4.24 3.86Z" class="cls-1"/>
	<path d="M7.85 2.51c.05.01.15.03.25.03.34 0 .45-.25.45-.65 0-.11-.03-.71-.07-1.04C8.12.66 7.51.33 6.32.33 4.46.33 2.33 1.47 2.33 4.3c0 2.64 1.53 3.79 3.5 3.79 1.65 0 2.5-.62 2.79-.88V5l.24-.09c.27-.09.37-.23.37-.4 0-.05-.01-.13-.01-.13H6.5c-.05.11-.12.25-.12.35 0 .07.04.1.15.13l.63.15v2.14c-.28.09-.63.15-1.02.15-1.35 0-2.29-1.03-2.29-3.17s1.19-3.05 2.46-3.05c.55 0 1.09.17 1.3.33l.24 1.1Zm6.27 2.87c.08-.26.13-.72.13-.99 0-1.11-.64-1.86-1.93-1.86s-2.48.99-2.48 2.88.94 2.67 2.43 2.67c1.26 0 2.01-.66 2.01-.94 0-.1-.05-.32-.2-.44-.29.26-.69.5-1.37.5-.81 0-1.47-.52-1.48-1.83h2.88Zm-2.87-.64c.05-1.03.37-1.52.94-1.52.53 0 .71.46.71 1.04 0 .18-.03.38-.05.48h-1.59Zm7.22-2.08h-1.41s-.03-.58-.03-.95c0-.63.14-.88.51-.88s.6.28.73.46c.26-.08.5-.27.5-.64S18.53 0 17.89 0c-.99 0-2.19.86-2.19 2.62v.04l-.47.13c-.21.05-.34.18-.34.38 0 .03.01.14.01.14h.79v4.03l-.35.13c-.21.08-.34.16-.34.36 0 .03.01.12.01.12h2.8s.11-.22.11-.33c0-.09-.04-.12-.15-.14l-.72-.14V3.31h1.29l.12-.65Zm3.06-.13c-1.46 0-2.77.99-2.77 2.84s1.09 2.72 2.56 2.72c1.4 0 2.75-.92 2.75-2.83s-1.06-2.73-2.54-2.73Zm-.13.7c.74 0 1.26.64 1.26 2.1s-.52 2.03-1.26 2.03-1.23-.61-1.23-2.08.49-2.06 1.23-2.06Zm-.35-2.01c0-.4-.27-.65-.65-.65s-.65.25-.65.65c0 .38.28.64.65.64s.65-.26.65-.64Zm2.09 0c0-.4-.27-.65-.64-.65-.39 0-.66.25-.66.65 0 .38.27.64.66.64.37 0 .64-.26.64-.64Zm3.67 1.37-1.72.16c-.26.02-.4.15-.4.34 0 .04.01.13.01.13l.74.13v3.99l-.35.13c-.21.08-.34.16-.34.36 0 .03.01.12.01.12h2.88s.11-.22.11-.33c0-.09-.04-.12-.15-.14l-.79-.14V4.13c.17-.24.47-.46 1.07-.46.43 0 .71.13.74.14.09-.11.21-.39.21-.66 0-.37-.25-.63-.76-.63-.66 0-1.05.64-1.28 1.02h-.03l.07-.96ZM34.06.07l-1.72.16c-.26.02-.4.15-.4.34 0 .04.01.14.01.14l.74.12v1.75c-.15-.02-.35-.04-.57-.04-1.5 0-2.97.99-2.97 3 0 1.79.94 2.55 2.04 2.55.83 0 1.31-.47 1.52-.8h.03v.74l1.71-.13c.26-.02.4-.16.4-.37 0-.04-.01-.09-.01-.09l-.79-.11V.07Zm-1.37 6.6c-.13.18-.42.45-.92.45-.61 0-1.21-.52-1.21-1.88 0-1.46.57-1.99 1.38-1.99.38 0 .63.14.75.26v3.16Zm6.98-1.28c.08-.26.13-.72.13-.99 0-1.11-.64-1.86-1.93-1.86s-2.48.99-2.48 2.88.94 2.67 2.43 2.67c1.26 0 2.01-.66 2.01-.94 0-.1-.05-.32-.2-.44-.29.26-.69.5-1.37.5-.81 0-1.47-.52-1.48-1.83h2.88Zm-2.87-.64c.05-1.03.37-1.52.94-1.52.53 0 .71.46.71 1.04 0 .18-.03.38-.05.48h-1.59Zm5.78-2.14-1.72.16c-.26.02-.4.15-.4.34 0 .04.01.13.01.13l.74.13v3.99l-.35.13c-.21.08-.34.16-.34.36 0 .03.01.12.01.12h2.88s.11-.22.11-.33c0-.09-.04-.12-.15-.14l-.79-.14V4.15c.17-.24.47-.46 1.07-.46.43 0 .71.13.74.14.09-.11.21-.39.21-.66 0-.37-.25-.63-.76-.63-.66 0-1.05.64-1.28 1.02h-.03l.07-.96Zm5.92.07h-1.57V1.2H45.9l-.28 1.48-.52.13c-.21.04-.34.18-.34.38 0 .03.01.14.01.14h.79v3.16c0 .98.41 1.61 1.51 1.61s1.46-.53 1.46-.66c0-.14-.04-.28-.12-.41-.1.09-.37.26-.8.26-.51 0-.67-.42-.67-1.01V3.33h1.45l.12-.65Zm7.78.39s.08-.22.08-.28-.04-.11-.13-.11h-1.97c-.16 0-.3.09-.3.26 0 .05.01.13.01.13l.87.18-1.17 3.29h-.02l-1.12-3.32.59-.16s.08-.22.08-.28-.04-.11-.13-.11h-2.33c-.16 0-.3.09-.3.26 0 .05.01.13.01.13l.51.15 2.01 4.75h.89l1.91-4.72.52-.18Zm2.98-.52c-1.46 0-2.77.99-2.77 2.84s1.09 2.72 2.56 2.72 2.75-.92 2.75-2.83-1.06-2.73-2.54-2.73Zm-.13.7c.74 0 1.26.64 1.26 2.1s-.52 2.03-1.26 2.03-1.23-.61-1.23-2.08.49-2.06 1.23-2.06Zm11.98 1.17c0-1.23-.61-1.88-1.66-1.88-.96 0-1.53.55-1.83.89-.24-.59-.73-.89-1.43-.89-.89 0-1.41.46-1.68.76h-.03l.07-.69-1.72.16c-.26.02-.4.15-.4.34 0 .04.01.13.01.13l.74.13v3.99l-.35.13c-.21.08-.34.16-.34.36 0 .03.01.12.01.12h2.65s.11-.23.11-.34c0-.09-.04-.11-.15-.14l-.57-.13V3.87c.2-.15.51-.35 1-.35s.88.22.88 1.13v2.71l-.3.12c-.21.08-.34.17-.34.37 0 .03.01.12.01.12h2.65s.11-.22.11-.33c0-.09-.04-.12-.15-.14l-.61-.14V4.42c0-.17-.01-.35-.03-.5.2-.17.53-.4 1.07-.4.48 0 .91.22.91 1.13v2.71l-.32.12c-.2.08-.34.17-.34.37 0 .03.01.12.01.12h2.65s.11-.22.11-.33c0-.09-.04-.12-.15-.14l-.6-.14V4.42ZM187.59 2.6l-1.72.16c-.26.02-.4.15-.4.34 0 .04.01.13.01.13l.74.13v3.99l-.35.13c-.21.08-.34.16-.34.36 0 .03.01.12.01.12h2.69s.11-.22.11-.33c0-.09-.04-.12-.15-.14l-.61-.14V2.6Zm.12-1.71c0-.47-.38-.78-.83-.78s-.8.32-.8.78.36.77.8.77.83-.29.83-.77Zm9.74 3.52c0-1.23-.61-1.88-1.66-1.88-.96 0-1.53.55-1.83.89-.24-.59-.73-.89-1.43-.89-.89 0-1.41.46-1.67.76h-.03l.07-.69-1.72.16c-.26.02-.4.15-.4.34v.13l.74.13v3.99l-.35.13c-.21.08-.34.16-.34.36v.12h2.65s.11-.23.11-.34c0-.09-.04-.11-.15-.14l-.56-.13V3.86c.19-.15.51-.35 1-.35s.88.22.88 1.13v2.71l-.3.12c-.21.08-.34.17-.34.37 0 .03.01.12.01.12h2.65s.11-.22.11-.33c0-.09-.04-.12-.15-.14l-.61-.14V4.41c0-.17-.01-.35-.03-.5.19-.17.53-.4 1.07-.4.48 0 .91.22.91 1.13v2.71l-.31.12c-.2.08-.34.17-.34.37 0 .03.01.12.01.12h2.65s.11-.22.11-.33c0-.09-.04-.12-.15-.14l-.6-.14V4.41Zm9.21-1.8c0-1.44-1.03-2.15-3.23-2.15h-2.45c-.04.12-.12.26-.12.36 0 .07.04.1.15.12l.64.15v6.22l-.43.11c-.28.08-.37.23-.37.4v.14h2.98c.05-.13.12-.27.12-.37 0-.07-.03-.1-.15-.13l-.69-.15v-2.4h.34c.13 0 .33-.01.33-.01l1.75 3.07h2.04c.05-.13.12-.27.12-.37 0-.07-.03-.1-.15-.13l-.63-.14-1.67-2.71c.92-.37 1.42-1.05 1.42-2Zm-1.51.05c0 .91-.52 1.5-1.73 1.5h-.3V1.21h.3c1.21 0 1.73.51 1.73 1.46Zm6.77 1.82c0-1.28-.59-1.95-1.84-1.95-1.16 0-2.01.51-2.01 1.18 0 .37.23.58.62.58.13 0 .29-.02.29-.02.05-.4.13-.73.23-.96.09-.03.26-.1.45-.1.63 0 .91.32.91 1.37v.45h-.28c-1.21 0-2.43.4-2.43 1.59 0 .87.62 1.46 1.44 1.46.87 0 1.24-.53 1.36-.78h.02c.13.54.48.78 1.01.78.82 0 1.15-.53 1.15-.71 0-.12-.1-.27-.16-.35-.05.08-.19.23-.45.23-.17 0-.32-.11-.32-.49V4.48Zm-1.35 1.11v1.25c-.11.13-.39.35-.74.35-.37 0-.62-.28-.62-.71 0-.52.41-.83 1.14-.88h.22Zm4.5-5.52-1.73.16c-.26.02-.4.15-.4.34 0 .04.01.14.01.14l.75.12v6.52l-.36.13c-.21.07-.34.16-.34.36 0 .03.01.12.01.12h2.66s.11-.23.11-.34c0-.09-.04-.11-.15-.14l-.57-.13V3.92c.17-.16.5-.41 1.07-.41.49 0 .91.23.91 1.13v2.71l-.31.12c-.2.08-.34.17-.34.37v.12h2.65s.11-.22.11-.33c0-.09-.04-.12-.15-.14l-.6-.14V4.41c0-1.24-.58-1.88-1.65-1.88-.91 0-1.44.49-1.68.78h-.02V.07Zm13.12 4.35c0-1.23-.61-1.88-1.66-1.88-.96 0-1.53.55-1.83.89-.24-.59-.73-.89-1.43-.89-.89 0-1.41.46-1.68.76h-.03l.06-.69-1.71.16c-.26.02-.4.15-.4.34 0 .04.01.13.01.13l.74.13v3.99l-.35.13c-.21.08-.34.16-.34.36 0 .03.01.12.01.12h2.65s.11-.23.11-.34c0-.09-.04-.11-.15-.14l-.57-.13V3.87c.2-.15.51-.35 1-.35s.88.22.88 1.13v2.71l-.31.12c-.21.08-.34.17-.34.37 0 .03.01.12.01.12h2.65s.11-.22.11-.33c0-.09-.04-.12-.15-.14l-.61-.14V4.42c0-.17 0-.35-.03-.5.2-.17.53-.4 1.07-.4.48 0 .91.22.91 1.13v2.71l-.31.12c-.2.08-.34.17-.34.37 0 .03.01.12.01.12h2.65s.11-.22.11-.33c0-.09-.04-.12-.15-.14l-.6-.14V4.42Zm5.52.97c.08-.26.13-.72.13-.99 0-1.11-.64-1.86-1.93-1.86s-2.48.99-2.48 2.88.95 2.67 2.43 2.67c1.26 0 2.01-.66 2.01-.94 0-.1-.06-.32-.2-.44-.29.26-.69.5-1.37.5-.8 0-1.47-.52-1.48-1.83h2.88Zm-2.87-.64c.05-1.03.37-1.52.94-1.52.53 0 .71.46.71 1.04 0 .18-.03.38-.06.48h-1.59Zm9.13-.33c0-1.23-.56-1.88-1.63-1.88-.97 0-1.48.52-1.76.86h-.02l.06-.79-1.72.16c-.26.02-.4.15-.4.34v.13l.74.13v3.99l-.35.13c-.21.08-.34.16-.34.36v.12h2.65s.11-.23.11-.34c0-.09-.04-.11-.15-.14l-.57-.13V3.93c.19-.16.52-.41 1.07-.41.49 0 .91.23.91 1.13v2.71l-.3.12c-.21.08-.34.17-.34.37v.12h2.65s.11-.22.11-.33c0-.09-.04-.12-.15-.14l-.61-.14V4.42Zm8.29-4.35-1.72.16c-.26.02-.4.15-.4.34 0 .04.01.14.01.14l.74.12v1.75c-.15-.02-.35-.04-.57-.04-1.5 0-2.97.99-2.97 3 0 1.79.95 2.55 2.04 2.55.83 0 1.3-.47 1.52-.8h.03v.74l1.71-.13c.26-.02.4-.16.4-.37 0-.04-.01-.09-.01-.09l-.79-.11V.07Zm-1.37 6.6c-.13.18-.42.45-.92.45-.61 0-1.21-.52-1.21-1.88 0-1.46.57-1.99 1.38-1.99.38 0 .63.14.75.26v3.16Zm6.98-1.28c.08-.26.13-.72.13-.99 0-1.11-.64-1.86-1.93-1.86s-2.48.99-2.48 2.88.95 2.67 2.44 2.67c1.26 0 2.01-.66 2.01-.94 0-.1-.05-.32-.19-.44-.29.26-.69.5-1.37.5-.8 0-1.47-.52-1.48-1.83h2.88ZM251 4.75c.05-1.03.37-1.52.94-1.52.53 0 .71.46.71 1.04 0 .18-.03.38-.05.48h-1.59Zm6.51-.51s.13.01.17.01c.46 0 .53-.29.53-.74 0-.26-.02-.42-.03-.53-.21-.19-.72-.43-1.4-.43-1.11 0-1.86.6-1.86 1.47 0 1.01.63 1.38 1.3 1.83.46.29 1.02.52 1.02 1.01 0 .42-.36.59-.78.59-.25 0-.58-.12-.67-.2l-.25-.97s-.13-.01-.18-.01c-.37 0-.5.21-.5.71 0 .37.02.55.05.78.25.15.8.35 1.46.35 1.26 0 2.06-.68 2.06-1.6s-.73-1.36-1.4-1.76c-.49-.29-.98-.53-.98-1 0-.42.37-.57.65-.57s.57.11.69.2l.13.87Zm9.59-1.87c0-1.21-.96-1.9-2.96-1.9h-2.65c-.04.12-.12.26-.12.36 0 .07.04.1.15.12l.64.15v6.22l-.44.11c-.28.08-.37.23-.37.4v.14h2.85c2.02 0 3.07-.87 3.07-2.1 0-.95-.69-1.57-1.73-1.78v-.02c.92-.24 1.54-.72 1.54-1.7Zm-1.35 3.48c0 .83-.5 1.38-1.64 1.38h-.49v-2.7h.55c1.04 0 1.58.53 1.58 1.32Zm-.14-3.35c0 .75-.47 1.34-1.58 1.34h-.41V1.19h.42c1.07 0 1.57.42 1.57 1.29Zm7.61.11-1.72.16c-.26.02-.4.15-.4.34 0 .04.01.13.01.13l.74.13V6.7c-.2.26-.51.5-.97.5-.4 0-.88-.15-.88-1.14V2.61l-1.72.16c-.26.02-.4.15-.4.34 0 .04.01.13.01.13l.74.13v2.74c0 1.29.47 1.99 1.68 1.99.94 0 1.42-.56 1.58-.79h.02v.73l1.71-.13c.26-.02.4-.16.4-.37 0-.04-.01-.09-.01-.09l-.79-.11V2.6Zm6.64 1.81c0-1.23-.57-1.88-1.63-1.88-.97 0-1.48.52-1.76.86h-.02l.06-.79-1.72.16c-.26.02-.4.15-.4.34v.13l.74.13v3.99l-.35.13c-.21.08-.34.16-.34.36 0 .03.01.12.01.12h2.65s.11-.23.11-.34c0-.09-.04-.11-.15-.14l-.57-.13V3.93c.19-.16.52-.41 1.07-.41.49 0 .91.23.91 1.13v2.71l-.3.12c-.21.08-.34.17-.34.37v.12h2.65s.11-.22.11-.33c0-.09-.04-.12-.15-.14l-.61-.14V4.42Zm6.13-4.35-1.72.16c-.26.02-.4.15-.4.34 0 .04.01.14.01.14l.74.12v1.75c-.15-.02-.35-.04-.57-.04-1.5 0-2.97.99-2.97 3 0 1.79.94 2.55 2.04 2.55.83 0 1.31-.47 1.52-.8h.03v.74l1.71-.13c.26-.02.4-.16.4-.37v-.09l-.8-.11V.07Zm-1.37 6.6c-.13.18-.42.45-.92.45-.61 0-1.21-.52-1.21-1.88 0-1.46.57-1.99 1.38-1.99.38 0 .63.14.75.26v3.16Zm6.98-1.28c.08-.26.13-.72.13-.99 0-1.11-.64-1.86-1.93-1.86s-2.48.99-2.48 2.88.94 2.67 2.43 2.67c1.26 0 2.01-.66 2.01-.94 0-.1-.06-.32-.19-.44-.29.26-.7.5-1.37.5-.81 0-1.47-.52-1.48-1.83h2.88Zm-2.87-.64c.06-1.03.37-1.52.94-1.52.53 0 .71.46.71 1.04 0 .18-.03.38-.06.48h-1.59Zm6.51-.51s.13.01.17.01c.46 0 .53-.29.53-.74 0-.26-.02-.42-.03-.53-.21-.19-.72-.43-1.4-.43-1.11 0-1.86.6-1.86 1.47 0 1.01.63 1.38 1.3 1.83.46.29 1.02.52 1.02 1.01 0 .42-.36.59-.78.59-.25 0-.58-.12-.68-.2l-.25-.97s-.13-.01-.19-.01c-.37 0-.5.21-.5.71 0 .37.02.55.05.78.25.15.8.35 1.46.35 1.26 0 2.05-.68 2.05-1.6s-.73-1.36-1.4-1.76c-.49-.29-.98-.53-.98-1 0-.42.37-.57.65-.57s.57.11.69.2l.13.87Zm3.59-1.63-1.73.16c-.26.02-.4.15-.4.34 0 .04.01.13.01.13l.75.13v6.16l-.36.13c-.21.07-.34.16-.34.36 0 .03.01.12.01.12h2.69s.11-.22.11-.33c0-.09-.04-.12-.15-.14l-.6-.14v-1.5c.15.02.34.05.56.05 1.6 0 2.95-.89 2.95-3.06 0-1.71-.95-2.48-1.99-2.48-.84 0-1.31.46-1.56.76h-.03l.08-.69Zm0 1.24c.17-.15.45-.33.84-.33.63 0 1.26.46 1.26 1.76 0 1.52-.52 2.1-1.37 2.1-.35 0-.59-.11-.73-.21V3.84Zm6.25-1.24-1.72.16c-.26.02-.4.15-.4.34 0 .04.01.13.01.13l.74.13v3.99l-.35.13c-.21.08-.34.16-.34.36 0 .03.01.12.01.12h2.88s.11-.22.11-.33c0-.09-.04-.12-.15-.14l-.79-.14V4.15c.17-.24.47-.46 1.07-.46.43 0 .71.13.74.14.09-.11.21-.39.21-.66 0-.37-.25-.63-.76-.63-.66 0-1.05.64-1.28 1.02h-.03l.07-.96Zm5.15-.07c-1.46 0-2.77.99-2.77 2.84s1.08 2.72 2.57 2.72c1.4 0 2.75-.92 2.75-2.83s-1.06-2.73-2.54-2.73Zm-.13.7c.74 0 1.26.64 1.26 2.1s-.52 2.03-1.26 2.03-1.23-.61-1.23-2.08.49-2.06 1.23-2.06Zm8.57-.57h-1.96c-.28-.09-.59-.13-.89-.13-1.19 0-2.16.61-2.16 1.76 0 .78.39 1.35 1.03 1.62v.02c-.26.15-.82.43-.82 1.09 0 .35.15.64.48.81v.02c-.46.11-.99.48-.99 1.15 0 .8.66 1.25 2.04 1.25 1.9 0 3.02-.97 3.02-2.05 0-.8-.53-1.31-1.62-1.31h-1.27c-.37 0-.52-.12-.52-.36s.13-.37.28-.46c.15.02.3.03.48.03 1.26 0 2.25-.65 2.25-1.81 0-.38-.12-.71-.33-.98h.86l.12-.65Zm-2.83.51c.48 0 .84.36.84 1.13 0 .86-.36 1.16-.86 1.16-.46 0-.83-.3-.83-1.16s.37-1.13.85-1.13Zm-.54 4.85h1.23c.5 0 .69.2.69.6 0 .52-.68.96-1.61.96-.74 0-1.06-.35-1.06-.87 0-.34.16-.55.37-.71.11.01.24.02.38.02Zm5.78-5.42-1.72.16c-.26.02-.4.15-.4.34 0 .04.01.13.01.13l.74.13v3.99l-.35.13c-.21.08-.34.16-.34.36 0 .03.01.12.01.12h2.88s.11-.22.11-.33c0-.09-.04-.12-.15-.14l-.79-.14V4.15c.17-.24.47-.46 1.07-.46.43 0 .71.13.74.14.09-.11.21-.39.21-.66 0-.37-.25-.63-.76-.63-.66 0-1.06.64-1.28 1.02h-.03l.07-.96Zm6.48 1.88c0-1.28-.59-1.95-1.84-1.95-1.16 0-2.01.51-2.01 1.18 0 .37.23.58.62.58.13 0 .29-.02.29-.02.05-.4.13-.73.23-.96.09-.03.26-.1.45-.1.63 0 .91.32.91 1.37v.45h-.28c-1.21 0-2.43.4-2.43 1.59 0 .87.62 1.46 1.44 1.46.87 0 1.24-.53 1.36-.78h.02c.13.54.48.78 1.01.78.82 0 1.15-.53 1.15-.71 0-.12-.1-.27-.16-.35-.05.08-.19.23-.45.23-.17 0-.31-.11-.31-.49V4.49Zm-1.35 1.11v1.25c-.11.13-.39.35-.74.35-.37 0-.62-.28-.62-.71 0-.52.41-.83 1.14-.88h.22Zm11.16-1.17c0-1.23-.61-1.88-1.66-1.88-.96 0-1.53.55-1.83.89-.24-.59-.73-.89-1.43-.89-.89 0-1.41.46-1.68.76h-.03l.07-.69-1.72.16c-.26.02-.4.15-.4.34 0 .04.01.13.01.13l.74.13v3.99l-.35.13c-.21.08-.34.16-.34.36v.12h2.65s.11-.23.11-.34c0-.09-.04-.11-.15-.14l-.57-.13V3.88c.19-.15.51-.35 1-.35s.88.22.88 1.13v2.71l-.3.12c-.21.08-.34.17-.34.37 0 .03.01.12.01.12h2.65s.11-.22.11-.33c0-.09-.04-.12-.15-.14l-.61-.14V4.43c0-.17-.01-.35-.03-.5.19-.17.53-.4 1.07-.4.48 0 .91.22.91 1.13v2.71l-.31.12c-.19.08-.34.17-.34.37 0 .03.01.12.01.12H338s.11-.22.11-.33c0-.09-.04-.12-.15-.14l-.6-.14V4.43Zm9.78 0c0-1.23-.61-1.88-1.66-1.88-.96 0-1.53.55-1.83.89-.24-.59-.73-.89-1.43-.89-.89 0-1.41.46-1.68.76h-.03l.07-.69-1.72.16c-.26.02-.4.15-.4.34 0 .04.01.13.01.13l.74.13v3.99l-.35.13c-.21.08-.34.16-.34.36 0 .03.01.12.01.12h2.65s.11-.23.11-.34c0-.09-.04-.11-.15-.14l-.57-.13V3.88c.19-.15.51-.35 1-.35s.88.22.88 1.13v2.71l-.3.12c-.21.08-.34.17-.34.37v.12h2.65s.11-.22.11-.33c0-.09-.04-.12-.15-.14l-.61-.14V4.43c0-.17-.01-.35-.03-.5.19-.17.53-.4 1.07-.4.48 0 .91.22.91 1.13v2.71l-.31.12c-.19.08-.34.17-.34.37 0 .03.01.12.01.12h2.65s.11-.22.11-.33c0-.09-.04-.12-.15-.14l-.6-.14V4.43Zm3.93-.18s.13.01.17.01c.46 0 .53-.29.53-.74 0-.26-.02-.42-.03-.53-.21-.19-.72-.43-1.4-.43-1.11 0-1.86.6-1.86 1.47 0 1.01.63 1.38 1.3 1.83.46.29 1.02.52 1.02 1.01 0 .42-.36.59-.78.59-.25 0-.58-.12-.68-.2l-.25-.97s-.13-.01-.19-.01c-.37 0-.5.21-.5.71 0 .37.02.55.05.78.25.15.8.35 1.46.35 1.26 0 2.05-.68 2.05-1.6s-.73-1.36-1.4-1.76c-.49-.29-.98-.53-.98-1 0-.42.37-.57.65-.57s.57.11.69.2l.13.87ZM47.67 32.4c0 .29-.04.54-.11.75-.07.21-.17.4-.29.55-.12.15-.27.28-.43.38s-.33.17-.51.21v.02c.21.04.41.11.6.23.19.11.35.25.49.42s.25.36.33.59c.08.23.12.47.12.74 0 .33-.06.62-.17.89-.11.27-.28.5-.52.7s-.53.35-.89.46c-.36.11-.78.17-1.27.17h-1.68V30.3h1.58c.48 0 .9.05 1.24.15.34.1.63.24.85.42.22.18.38.4.48.66.1.26.15.55.15.86Zm-1.05.04c0-.38-.13-.69-.4-.94s-.69-.37-1.27-.37h-.55v2.83h.54c.56 0 .98-.13 1.26-.4.29-.27.43-.64.43-1.12Zm.15 3.78c0-.44-.15-.79-.43-1.05-.29-.26-.7-.39-1.24-.39h-.7v2.88h.64c.61 0 1.05-.12 1.33-.36.27-.24.41-.6.41-1.08Zm6.38 2.3h-.88v-.64h-.02s-.08.12-.15.21c-.08.09-.18.18-.3.26-.12.08-.27.16-.45.22-.17.06-.37.1-.58.1-.25 0-.48-.04-.68-.11-.2-.08-.37-.2-.52-.36-.14-.17-.25-.38-.33-.65-.08-.27-.11-.59-.11-.98v-3.75h.96v3.68c0 .48.08.81.23 1.02.15.2.39.3.72.3.28 0 .51-.07.7-.21.19-.14.34-.28.45-.41v-4.38h.96v5.71Zm4.59 0v-3.68c0-.48-.08-.83-.24-1.04-.16-.21-.41-.32-.74-.32-.29 0-.52.07-.71.21-.19.14-.34.28-.45.42v4.4h-.96V32.8h.88v.64h.02s.08-.12.15-.21c.08-.09.18-.18.31-.26.13-.08.28-.16.45-.22.17-.06.37-.1.59-.1.25 0 .48.04.69.11.21.08.38.2.52.36.14.17.25.38.33.65.08.27.12.59.12.98v3.75h-.96Zm2.14-2.77c0-.58.08-1.06.23-1.45.15-.39.35-.7.58-.94s.51-.41.81-.51c.3-.1.6-.15.9-.15.18 0 .34.01.48.04.14.03.25.06.33.1V30.1l.96-.11v8.52h-.88v-.61h-.02s-.07.11-.13.2c-.06.08-.15.17-.26.25-.11.08-.25.15-.42.21-.17.06-.36.09-.58.09-.27 0-.53-.05-.77-.16s-.45-.28-.64-.51c-.18-.23-.33-.54-.43-.9-.11-.37-.16-.81-.16-1.34Zm2.26 2.06c.15 0 .29-.02.4-.06.12-.04.22-.09.31-.15s.16-.12.22-.18.1-.12.14-.17v-3.52c-.09-.06-.19-.1-.3-.14-.11-.04-.26-.06-.43-.06-.22 0-.43.04-.62.11-.19.08-.36.2-.51.37-.14.17-.26.4-.34.68-.08.28-.12.62-.12 1.02s.03.73.1.99c.07.27.16.48.28.64.12.16.25.28.4.35.15.07.31.11.48.11Zm7.18-3.07c0 .25 0 .46-.02.64s-.03.34-.05.47h-2.92c.03.67.18 1.17.43 1.49s.63.48 1.11.48c.17 0 .32-.02.45-.06.14-.04.25-.09.35-.14.1-.06.18-.11.25-.17.07-.06.12-.1.15-.13l.36.68s-.1.1-.18.17c-.08.08-.19.15-.32.23-.13.08-.3.14-.5.2s-.43.08-.7.08c-.36 0-.68-.06-.97-.18-.29-.12-.54-.3-.74-.55-.2-.25-.36-.57-.47-.95-.11-.38-.17-.85-.17-1.39 0-.51.06-.95.17-1.31.12-.37.27-.67.47-.91.2-.24.43-.41.69-.53.26-.12.54-.17.85-.17.55 0 .98.17 1.29.52.31.35.46.86.46 1.55Zm-1.81-1.29c-.34 0-.61.14-.82.43-.21.29-.33.7-.36 1.24h2.08s.01-.1.02-.17v-.24c0-.4-.08-.7-.24-.92-.16-.22-.39-.33-.69-.33Zm5.56.51c-.06-.07-.18-.17-.35-.29-.17-.12-.38-.18-.65-.18-.25 0-.45.06-.58.18-.13.12-.2.26-.2.43 0 .21.06.39.18.53s.31.29.57.45l.36.21c.39.23.69.48.92.74.22.27.33.61.33 1.03 0 .45-.16.83-.47 1.14-.31.31-.76.46-1.35.46-.23 0-.43-.02-.61-.07-.17-.05-.33-.1-.46-.17-.13-.06-.24-.13-.33-.21-.09-.08-.16-.14-.21-.21l.46-.76.17.17c.07.06.15.12.24.18.1.06.2.11.32.15.12.04.26.06.42.06.29 0 .5-.06.65-.19.15-.13.23-.28.23-.46 0-.13-.02-.25-.05-.35-.04-.1-.09-.19-.16-.27-.07-.08-.16-.15-.26-.23s-.22-.15-.36-.24l-.36-.23c-.36-.23-.64-.47-.84-.73-.2-.25-.3-.58-.3-.98 0-.21.04-.41.12-.59.08-.18.2-.33.35-.46.15-.13.33-.23.53-.31.2-.08.42-.11.65-.11s.41.02.57.07c.16.04.3.1.41.17.11.07.21.13.29.2.08.07.14.12.18.17l-.42.69Zm4.7 4.56v-3.68c0-.47-.07-.81-.2-1.01-.14-.21-.35-.31-.65-.31-.16 0-.3.02-.42.06-.12.04-.23.09-.33.15s-.18.12-.25.2c-.07.07-.13.13-.18.19v4.4h-.96v-5.71h.88v.64h.02c.04-.06.1-.14.18-.23.08-.09.18-.18.3-.26.12-.08.26-.15.42-.21.16-.06.34-.08.54-.08.65 0 1.11.25 1.38.76.06-.08.13-.16.23-.26s.21-.17.33-.25c.13-.08.27-.14.43-.18.16-.05.33-.07.52-.07 1.16 0 1.74.67 1.74 2.02v3.83h-.96v-3.68c0-.47-.08-.81-.25-1.01-.17-.21-.41-.31-.74-.31-.27 0-.49.07-.67.2-.18.13-.32.26-.42.38.02.09.03.18.04.28 0 .1.01.2.01.31v3.83h-.96Zm6.37 0h-.96v-5.71h.96v5.71Zm-.48-7.09c-.2 0-.36-.06-.48-.19s-.18-.29-.18-.5.06-.36.18-.49.28-.19.48-.19.35.06.46.19c.12.13.18.29.18.49s-.06.37-.18.5-.27.19-.46.19Zm5.07 7.09v-3.68c0-.48-.08-.83-.24-1.04-.16-.21-.41-.32-.74-.32-.29 0-.52.07-.71.21-.19.14-.34.28-.45.42v4.4h-.96V32.8h.88v.64h.02s.08-.12.15-.21c.08-.09.18-.18.31-.26.13-.08.28-.16.45-.22s.37-.1.59-.1c.25 0 .48.04.69.11.21.08.38.2.52.36.14.17.25.38.33.65.08.27.12.59.12.98v3.75h-.96Zm3.37 0h-.96v-5.71h.96v5.71Zm-.48-7.09c-.2 0-.36-.06-.48-.19s-.18-.29-.18-.5.06-.36.18-.49.28-.19.48-.19.35.06.46.19c.12.13.18.29.18.49s-.06.37-.18.5-.27.19-.46.19Zm4.41 2.53c-.06-.07-.18-.17-.34-.29-.17-.12-.38-.18-.65-.18-.25 0-.45.06-.58.18-.14.12-.2.26-.2.43 0 .21.06.39.18.53s.31.29.57.45l.36.21c.39.23.69.48.92.74s.33.61.33 1.03c0 .45-.16.83-.47 1.14-.31.31-.76.46-1.35.46-.23 0-.43-.02-.61-.07-.17-.05-.33-.1-.46-.17-.13-.06-.24-.13-.33-.21-.09-.08-.16-.14-.21-.21l.46-.76s.11.1.17.17c.07.06.15.12.24.18s.2.11.32.15c.12.04.26.06.42.06.29 0 .5-.06.65-.19.15-.13.23-.28.23-.46 0-.13-.02-.25-.05-.35-.04-.1-.09-.19-.16-.27-.07-.08-.16-.15-.26-.23-.1-.07-.22-.15-.36-.24l-.36-.23c-.36-.23-.64-.47-.84-.73-.2-.25-.3-.58-.3-.98 0-.21.04-.41.12-.59.08-.18.2-.33.35-.46.15-.13.33-.23.53-.31s.42-.11.65-.11.41.02.57.07c.16.04.3.1.41.17.11.07.21.13.29.2.08.07.14.12.18.17l-.42.69Zm4.14-.37h-1.25v3.17c0 .4.05.68.16.83.1.15.28.22.52.22.14 0 .27-.02.37-.06.1-.04.18-.08.23-.11l.13.77s-.13.08-.29.15c-.15.07-.35.1-.61.1-.49 0-.86-.14-1.11-.41-.25-.27-.37-.73-.37-1.36v-3.3h-.69v-.64l.69-.14.11-1.59h.86v1.59h1.37l-.12.79Zm4.68 1.14c0 .25 0 .46-.02.64s-.03.34-.05.47h-2.92c.03.67.18 1.17.43 1.49s.63.48 1.11.48c.17 0 .32-.02.45-.06.14-.04.25-.09.35-.14.1-.06.18-.11.25-.17.07-.06.12-.1.15-.13l.36.68s-.1.1-.18.17c-.08.08-.19.15-.32.23-.13.08-.3.14-.5.2s-.43.08-.7.08c-.36 0-.68-.06-.97-.18-.29-.12-.54-.3-.74-.55-.2-.25-.36-.57-.47-.95-.11-.38-.17-.85-.17-1.39 0-.51.06-.95.17-1.31.12-.37.27-.67.47-.91.2-.24.43-.41.69-.53.26-.12.54-.17.85-.17.55 0 .98.17 1.29.52.31.35.46.86.46 1.55Zm-1.81-1.29c-.34 0-.62.14-.82.43-.21.29-.33.7-.36 1.24h2.08s.01-.1.02-.17v-.24c0-.4-.08-.7-.24-.92-.16-.22-.39-.33-.69-.33Zm5.6.2s-.08-.04-.15-.06c-.08-.02-.19-.04-.32-.04-.3 0-.54.08-.71.24-.17.16-.29.34-.36.53v4.19h-.96v-5.71h.88v.77h.02c.04-.11.09-.22.15-.33.06-.11.14-.2.24-.29.1-.08.21-.15.34-.2.13-.05.29-.07.47-.07.13 0 .24.01.33.04.08.02.15.04.2.06l-.12.86Zm1.92 4.87h-.96V32.8h.96v5.71Zm-.48-7.09c-.2 0-.36-.06-.48-.19s-.18-.29-.18-.5.06-.36.18-.49.28-.19.48-.19.34.06.46.19.18.29.18.49-.06.37-.18.5-.27.19-.46.19Zm5.95 7.09h-.88v-.64h-.02s-.08.12-.15.21c-.08.09-.18.18-.3.26-.12.08-.27.16-.45.22-.17.06-.37.1-.58.1-.25 0-.48-.04-.68-.11-.2-.08-.37-.2-.52-.36-.14-.17-.25-.38-.33-.65-.08-.27-.11-.59-.11-.98v-3.75h.96v3.68c0 .48.08.81.23 1.02.15.2.39.3.72.3.28 0 .51-.07.7-.21.19-.14.34-.28.45-.41v-4.38h.96v5.71Zm4.47 0v-3.68c0-.47-.07-.81-.2-1.01-.13-.21-.35-.31-.65-.31-.16 0-.3.02-.42.06-.12.04-.23.09-.33.15-.09.06-.18.12-.25.2-.07.07-.13.13-.18.19v4.4h-.96V32.8h.88v.64h.02c.04-.06.1-.14.18-.23s.18-.18.3-.26c.12-.08.26-.15.42-.21.16-.06.34-.08.54-.08.65 0 1.11.25 1.38.76.06-.08.13-.16.23-.26.09-.09.21-.17.33-.25.13-.08.27-.14.43-.18.16-.05.33-.07.52-.07 1.16 0 1.74.67 1.74 2.02v3.83h-.96v-3.68c0-.47-.08-.81-.25-1.01-.17-.21-.41-.31-.74-.31-.27 0-.49.07-.67.2s-.32.26-.42.38c.02.09.03.18.04.28 0 .1.01.2.01.31v3.83h-.96Zm-74.96 7.07h-1.17v4.93h-.96v-4.93h-.69v-.64l.69-.13v-1.14c0-.31.04-.58.13-.8.09-.22.2-.4.34-.55.14-.14.31-.25.5-.31s.39-.1.61-.1.38.03.52.08c.14.06.24.1.29.13l-.2.8s-.12-.07-.2-.1c-.09-.04-.19-.05-.32-.05-.23 0-.4.07-.52.21-.12.14-.18.4-.18.79v1.02h1.29l-.12.79Zm4.95 4.93h-.88v-.64h-.02s-.08.12-.15.21c-.08.09-.18.18-.3.26-.12.08-.27.16-.45.22s-.37.09-.58.09c-.25 0-.48-.04-.68-.11-.2-.08-.37-.2-.52-.36-.14-.17-.25-.38-.33-.65s-.11-.59-.11-.98V44.8h.96v3.68c0 .48.08.81.23 1.02.15.2.39.3.72.3.28 0 .51-.07.7-.21s.34-.28.45-.41V44.8h.96v5.71Zm-2.37-7.35c0 .18-.06.33-.17.44-.11.11-.25.17-.4.17s-.29-.06-.4-.17c-.11-.11-.17-.26-.17-.44s.06-.33.17-.44c.11-.11.25-.17.4-.17s.29.06.4.17c.11.11.17.26.17.44Zm1.83 0c0 .18-.06.33-.17.44-.11.11-.25.17-.4.17s-.29-.06-.4-.17c-.11-.11-.17-.26-.17-.44s.06-.33.17-.44.25-.17.4-.17.29.06.4.17c.11.11.17.26.17.44Zm4.52 2.49s-.08-.04-.15-.06c-.08-.02-.19-.04-.32-.04-.3 0-.54.08-.71.24-.17.16-.29.34-.36.53v4.19h-.96V44.8h.88v.77h.02c.04-.11.09-.22.15-.33.06-.11.14-.2.24-.29.1-.08.21-.15.34-.2.13-.05.29-.07.47-.07.13 0 .24.01.33.04.08.02.15.04.2.06l-.12.86Zm3.4 4.87v-8.21h4.03l-.07.82H58.9v3.03h2.7v.82h-2.7v3.53h-1.04Zm4.51-1.45c0-.33.06-.61.19-.83.13-.22.3-.4.51-.54.21-.14.47-.24.76-.3.29-.06.6-.09.92-.09h.3v-.55c0-.48-.09-.82-.26-1-.17-.18-.41-.27-.72-.27-.29 0-.52.06-.71.18-.19.12-.34.23-.45.33l-.4-.64c.06-.06.14-.13.24-.21.1-.08.22-.15.36-.23.14-.07.31-.13.49-.18.18-.05.39-.07.62-.07.59 0 1.03.16 1.33.49.3.33.45.85.45 1.57v2.61c0 .25 0 .49.02.72.02.23.03.39.05.47h-.92l-.04-.63h-.02c-.03.07-.08.15-.14.24-.06.09-.14.17-.24.25s-.21.14-.35.2c-.13.06-.29.08-.48.08-.21 0-.41-.04-.6-.12-.19-.08-.35-.19-.49-.33s-.25-.31-.32-.51c-.08-.19-.11-.41-.11-.64Zm1.73.77c.14 0 .25-.02.36-.06.1-.04.19-.09.27-.14.08-.06.14-.12.19-.18.05-.07.1-.12.14-.17v-1.26h-.31c-.46.03-.81.11-1.05.25s-.36.37-.36.69c0 .29.07.51.2.66.13.15.32.22.56.22Zm6.35.68v-3.68c0-.47-.07-.81-.2-1.01-.13-.21-.35-.31-.65-.31-.16 0-.3.02-.42.06-.12.04-.23.09-.33.15s-.18.12-.25.2c-.07.07-.13.13-.18.19v4.4h-.96v-5.71h.88v.64h.02c.04-.06.1-.14.18-.23.08-.09.18-.18.3-.26.12-.08.26-.15.42-.21.16-.06.34-.08.54-.08.65 0 1.11.25 1.38.76.06-.08.13-.17.23-.26s.21-.17.33-.25c.13-.08.27-.14.43-.18.16-.05.33-.07.52-.07 1.16 0 1.74.67 1.74 2.02v3.83h-.96v-3.68c0-.47-.08-.81-.25-1.01-.17-.21-.41-.31-.74-.31-.27 0-.49.07-.67.2-.18.13-.32.26-.42.38.02.09.03.18.04.28 0 .1.01.2.01.31v3.83h-.96Zm6.37 0h-.96v-5.71h.96v5.71Zm-.48-7.09c-.2 0-.36-.06-.48-.19s-.18-.29-.18-.5.06-.36.18-.49.28-.19.48-.19.35.06.46.19c.12.13.18.29.18.49s-.06.37-.18.5-.27.19-.46.19Zm2.9 5.76c0 .24.03.41.1.5.07.1.18.14.35.14.09 0 .16 0 .22-.02s.1-.03.14-.05l.08.71s-.13.05-.26.09c-.13.04-.3.06-.51.06-.33 0-.59-.1-.79-.3-.2-.2-.3-.55-.3-1.06V42.1l.96-.11v7.19Zm2.73 1.33h-.96v-5.71h.96v5.71Zm-.48-7.09c-.2 0-.36-.06-.48-.19s-.18-.29-.18-.5.06-.36.18-.49.28-.19.48-.19.35.06.46.19c.12.13.18.29.18.49s-.06.37-.18.5-.27.19-.46.19Zm5.62 3.31c0 .25 0 .46-.02.64s-.03.33-.05.47h-2.92c.03.67.18 1.17.43 1.49s.63.48 1.11.48c.17 0 .32-.02.45-.06.13-.04.25-.09.35-.14.1-.06.18-.11.25-.17.07-.05.12-.1.15-.13l.36.68s-.1.1-.18.17c-.08.08-.19.15-.32.23-.13.08-.3.14-.5.2s-.43.08-.7.08c-.36 0-.68-.06-.97-.18-.29-.12-.54-.3-.74-.55s-.36-.57-.47-.95c-.11-.38-.17-.85-.17-1.39 0-.51.06-.95.17-1.32.12-.37.27-.67.47-.91.2-.24.43-.41.69-.53.26-.12.54-.17.84-.17.55 0 .98.17 1.29.52.31.34.46.86.46 1.55Zm-1.81-1.29c-.34 0-.61.14-.82.43-.21.29-.33.7-.36 1.24h2.08s.01-.1.02-.17v-.24c0-.4-.08-.7-.24-.92-.16-.22-.39-.33-.69-.33Zm2.94 4.39c0-.21.06-.38.18-.48.12-.11.27-.16.43-.16.23 0 .42.09.57.29.15.19.22.48.22.88 0 .27-.04.51-.12.71-.08.2-.19.38-.33.52-.13.15-.28.27-.45.36-.16.09-.32.17-.48.23l-.2-.42c.25-.13.45-.28.61-.46.16-.18.25-.44.26-.79h-.04c-.18 0-.34-.06-.46-.17-.13-.12-.19-.28-.19-.51Zm8.25-6.27s-.08-.08-.16-.14c-.08-.06-.17-.12-.29-.17-.12-.06-.25-.1-.4-.14-.16-.04-.33-.06-.52-.06-.36 0-.63.1-.81.29-.18.19-.27.41-.27.67 0 .16.02.31.07.44.04.14.11.27.2.4.09.13.2.26.34.39.13.13.3.27.49.42l.67.55c.19.16.37.32.54.49.17.17.32.34.44.53s.22.39.29.61c.07.22.11.46.11.73 0 .63-.19 1.13-.58 1.52s-.96.58-1.7.58c-.29 0-.55-.03-.78-.08-.23-.06-.42-.12-.59-.2-.17-.08-.31-.16-.42-.24-.11-.08-.19-.15-.25-.21l.42-.9s.12.11.21.19c.1.08.21.16.35.24.13.08.29.15.46.2.17.06.36.08.58.08.4 0 .72-.1.93-.3.22-.2.33-.44.33-.72 0-.17-.02-.33-.07-.48-.04-.14-.11-.28-.19-.41-.08-.13-.19-.26-.32-.39s-.28-.26-.45-.4l-.67-.56c-.23-.19-.43-.37-.61-.54-.17-.17-.32-.35-.45-.54-.12-.19-.22-.39-.28-.61-.06-.22-.09-.47-.09-.76 0-.26.05-.51.15-.74.1-.23.24-.43.42-.6.18-.17.4-.3.66-.39.26-.1.55-.14.87-.14.27 0 .51.03.71.08.21.05.38.11.53.18.15.07.26.14.35.21.09.07.16.12.2.15l-.43.79Zm5.51 3.17c0 .25 0 .46-.02.64s-.03.33-.05.47h-2.92c.03.67.18 1.17.43 1.49s.63.48 1.11.48c.17 0 .32-.02.45-.06.14-.04.25-.09.35-.14.1-.06.18-.11.25-.17.07-.05.12-.1.15-.13l.36.68s-.1.1-.18.17c-.08.08-.19.15-.32.23-.13.08-.3.14-.5.2s-.43.08-.7.08c-.36 0-.68-.06-.97-.18-.29-.12-.54-.3-.74-.55-.2-.25-.36-.57-.47-.95-.11-.38-.17-.85-.17-1.39 0-.51.06-.95.17-1.32.12-.37.27-.67.47-.91.2-.24.43-.41.69-.53.26-.12.54-.17.85-.17.55 0 .98.17 1.29.52.31.34.46.86.46 1.55Zm-1.81-1.29c-.34 0-.62.14-.82.43-.21.29-.33.7-.36 1.24h2.08s.01-.1.02-.17v-.24c0-.4-.08-.7-.24-.92-.16-.22-.39-.33-.69-.33Zm6.21 5.07v-3.68c0-.48-.08-.83-.24-1.04-.16-.21-.41-.32-.74-.32-.29 0-.52.07-.71.21s-.34.28-.45.42v4.4h-.96V44.8h.88v.64h.02s.08-.12.15-.21c.08-.09.18-.18.31-.26.13-.08.28-.16.45-.22.17-.06.37-.09.6-.09.25 0 .48.04.69.11.21.08.38.2.52.36.14.17.25.38.33.65.08.27.12.59.12.98v3.75h-.96Zm3.37 0h-.96v-5.71h.96v5.71Zm-.48-7.09c-.2 0-.36-.06-.48-.19s-.18-.29-.18-.5.06-.36.18-.49.28-.19.48-.19.34.06.46.19.18.29.18.49-.06.37-.18.5-.27.19-.46.19Zm1.69 4.24c0-.52.06-.98.18-1.36.12-.38.29-.69.5-.93.21-.24.45-.42.73-.54.27-.12.57-.17.87-.17s.61.06.88.17c.27.11.5.29.7.54s.36.55.47.93c.11.38.17.83.17 1.36s-.06.99-.18 1.37c-.12.38-.28.69-.49.93-.21.24-.45.42-.73.53-.28.11-.57.17-.88.17s-.61-.05-.88-.17c-.27-.11-.5-.29-.7-.53-.2-.24-.36-.55-.47-.93-.12-.38-.17-.83-.17-1.37Zm3.51 0c0-.76-.11-1.32-.33-1.66-.22-.35-.53-.52-.93-.52s-.7.17-.92.52c-.22.34-.33.9-.33 1.66s.11 1.31.33 1.64c.22.33.53.5.93.5s.7-.17.92-.5c.22-.33.33-.88.33-1.64Zm4.72-2.01s-.08-.04-.15-.06c-.08-.02-.19-.04-.32-.04-.3 0-.54.08-.71.24-.17.16-.29.34-.36.53v4.19h-.96v-5.71h.88v.77h.02c.04-.11.09-.22.16-.33.06-.11.14-.2.24-.29.1-.08.21-.15.34-.2.13-.05.29-.07.47-.07.13 0 .24.01.33.04.08.02.15.04.2.06l-.12.86Zm4.47 1.08c0 .25 0 .46-.02.64s-.03.33-.05.47h-2.91c.03.67.18 1.17.43 1.49.26.32.63.48 1.11.48.17 0 .32-.02.45-.06.13-.04.25-.09.35-.14.1-.06.18-.11.25-.17.07-.05.12-.1.15-.13l.36.68s-.1.1-.18.17c-.08.08-.19.15-.32.23-.13.08-.3.14-.5.2s-.43.08-.7.08c-.36 0-.68-.06-.97-.18-.29-.12-.54-.3-.74-.55-.2-.25-.36-.57-.47-.95-.11-.38-.17-.85-.17-1.39 0-.51.06-.95.17-1.32.11-.37.27-.67.47-.91.2-.24.43-.41.69-.53.26-.12.54-.17.84-.17.55 0 .98.17 1.29.52.31.34.46.86.46 1.55Zm-1.81-1.29c-.34 0-.62.14-.82.43-.21.29-.33.7-.36 1.24h2.08s.01-.1.02-.17v-.24c0-.4-.08-.7-.24-.92-.16-.22-.39-.33-.69-.33Zm6.21 5.07v-3.68c0-.48-.08-.83-.24-1.04-.16-.21-.41-.32-.74-.32-.29 0-.52.07-.71.21-.19.14-.34.28-.45.42v4.4h-.96V44.8h.88v.64h.02s.08-.12.16-.21.18-.18.31-.26.28-.16.45-.22c.17-.06.37-.09.59-.09.25 0 .48.04.69.11.21.08.38.2.52.36.14.17.25.38.33.65.08.27.12.59.12.98v3.75h-.96Zm2.25-.68c0-.21.06-.38.18-.48.12-.11.27-.16.43-.16.23 0 .42.09.56.29.15.19.22.48.22.88 0 .27-.04.51-.12.71-.08.2-.19.38-.33.52-.13.15-.28.27-.45.36-.16.09-.32.17-.48.23l-.2-.42c.25-.13.45-.28.61-.46.16-.18.25-.44.26-.79h-.04c-.18 0-.34-.06-.46-.17-.13-.12-.19-.28-.19-.51Zm5.14.68v-8.21h4.03l-.07.82h-2.93v3.03h2.7v.82h-2.7v3.53h-1.04Zm7.5-4.87s-.08-.04-.15-.06c-.08-.02-.19-.04-.32-.04-.3 0-.54.08-.71.24-.17.16-.29.34-.36.53v4.19h-.96V44.8h.88v.77h.02c.04-.11.09-.22.15-.33.06-.11.14-.2.24-.29.1-.08.21-.15.34-.2.13-.05.29-.07.47-.07.13 0 .24.01.33.04.08.02.15.04.2.06l-.12.86Zm.56 3.42c0-.33.06-.61.19-.83.13-.22.3-.4.51-.54.21-.14.47-.24.76-.3.29-.06.6-.09.92-.09h.3v-.55c0-.48-.09-.82-.26-1-.17-.18-.41-.27-.72-.27-.29 0-.52.06-.71.18-.19.12-.34.23-.45.33l-.4-.64c.06-.06.14-.13.24-.21.1-.08.22-.15.36-.23.14-.07.31-.13.49-.18.18-.05.39-.07.62-.07.59 0 1.03.16 1.33.49.3.33.45.85.45 1.57v2.61c0 .25 0 .49.02.72.02.23.03.39.05.47h-.92l-.04-.63h-.02c-.03.07-.08.15-.14.24-.06.09-.14.17-.24.25-.09.08-.21.14-.34.2-.13.06-.29.08-.48.08-.21 0-.41-.04-.6-.12-.19-.08-.35-.19-.49-.33s-.25-.31-.32-.51c-.08-.19-.11-.41-.11-.64Zm1.73.77c.13 0 .25-.02.36-.06.1-.04.19-.09.27-.14.08-.06.14-.12.19-.18.05-.07.1-.12.14-.17v-1.26h-.31c-.46.03-.81.11-1.05.25s-.36.37-.36.69c0 .29.07.51.2.66.13.15.32.22.56.22Zm7.35.68h-.88v-.64h-.02s-.08.12-.15.21c-.08.09-.18.18-.3.26-.12.08-.27.16-.45.22s-.37.09-.58.09c-.25 0-.48-.04-.68-.11-.2-.08-.37-.2-.52-.36-.14-.17-.25-.38-.33-.65s-.11-.59-.11-.98v-3.75h.96v3.68c0 .48.08.81.23 1.02.16.2.39.3.72.3.28 0 .51-.07.7-.21s.34-.28.45-.41v-4.38h.96v5.71Zm5.14-3.78c0 .25 0 .46-.02.64s-.03.33-.05.47h-2.91c.03.67.18 1.17.43 1.49s.63.48 1.11.48c.17 0 .32-.02.45-.06.13-.04.25-.09.35-.14.1-.06.18-.11.25-.17.07-.05.12-.1.15-.13l.36.68s-.1.1-.18.17c-.08.08-.19.15-.32.23-.13.08-.3.14-.5.2s-.43.08-.7.08c-.36 0-.68-.06-.97-.18-.29-.12-.54-.3-.74-.55-.2-.25-.36-.57-.47-.95-.11-.38-.17-.85-.17-1.39 0-.51.06-.95.17-1.32.12-.37.27-.67.47-.91.2-.24.43-.41.69-.53.26-.12.54-.17.84-.17.55 0 .98.17 1.29.52.31.34.46.86.46 1.55Zm-1.81-1.29c-.34 0-.61.14-.82.43-.21.29-.33.7-.36 1.24h2.08s.01-.1.02-.17v-.24c0-.4-.08-.7-.24-.92-.16-.22-.39-.33-.69-.33Zm6.21 5.07v-3.68c0-.48-.08-.83-.24-1.04-.16-.21-.41-.32-.74-.32-.29 0-.52.07-.71.21-.19.14-.34.28-.45.42v4.4h-.96V44.8h.88v.64h.02s.08-.12.15-.21c.08-.09.18-.18.31-.26.13-.08.28-.16.45-.22s.37-.09.59-.09c.25 0 .48.04.69.11.21.08.38.2.52.36.14.17.25.38.33.65.08.27.12.59.12.98v3.75h-.96Zm-115.05 12h-.88v-.64h-.02s-.08.12-.15.21c-.08.09-.18.18-.3.26-.12.08-.27.16-.45.22-.17.06-.37.09-.58.09-.25 0-.48-.04-.68-.11-.2-.08-.37-.2-.52-.36-.14-.17-.25-.38-.33-.65-.08-.27-.11-.59-.11-.98v-3.75h.96v3.68c0 .47.08.81.23 1.02.15.2.39.3.72.3.28 0 .51-.07.7-.21.19-.14.34-.28.45-.41v-4.38h.96v5.71Zm4.59 0v-3.68c0-.48-.08-.83-.24-1.04-.16-.21-.41-.32-.74-.32-.29 0-.52.07-.71.21-.19.14-.34.28-.45.42v4.4h-.96V56.8h.88v.64h.02s.08-.12.15-.21c.08-.09.18-.18.31-.26.13-.08.28-.16.45-.22.17-.06.37-.09.59-.09.25 0 .48.04.69.11.21.07.38.2.52.36.14.17.25.38.33.65.08.27.12.59.12.98v3.75h-.96Zm2.14-2.77c0-.58.08-1.06.23-1.45.15-.39.35-.7.58-.94.24-.24.51-.41.81-.51.3-.1.6-.15.9-.15.18 0 .34.01.48.04.14.03.25.06.33.1V54.1l.96-.11v8.52h-.88v-.61h-.02s-.07.11-.13.2c-.06.08-.15.17-.26.25-.11.08-.25.16-.42.21-.17.06-.36.09-.58.09-.27 0-.53-.05-.77-.16s-.45-.28-.64-.51c-.18-.23-.33-.54-.43-.91-.11-.37-.16-.81-.16-1.34Zm2.26 2.06c.15 0 .29-.02.4-.06.12-.04.22-.09.31-.15s.16-.12.22-.18.1-.12.14-.17v-3.52c-.09-.05-.19-.1-.3-.14-.11-.04-.26-.06-.43-.06-.22 0-.43.04-.62.11-.19.08-.36.2-.51.37-.14.18-.26.4-.34.68-.08.28-.12.62-.12 1.02s.03.73.1.99c.07.27.16.48.28.64.12.16.25.28.4.35.15.07.31.11.48.11Zm7.71-1.13c0 .36-.04.66-.13.91s-.21.45-.36.61c-.15.15-.34.27-.57.33-.22.07-.47.1-.74.1-.2 0-.36-.02-.48-.07-.12-.04-.21-.08-.26-.11l.17-.86s.11.06.2.09c.08.03.19.05.33.05.27 0 .47-.08.61-.25.14-.17.2-.47.2-.92V54.3h1.04v6.37Zm5.63 1.84h-.88v-.64h-.02s-.08.12-.15.21c-.08.09-.18.18-.3.26-.12.08-.27.16-.45.22-.17.06-.37.09-.58.09-.25 0-.48-.04-.68-.11-.2-.08-.37-.2-.52-.36-.14-.17-.25-.38-.33-.65s-.11-.59-.11-.98v-3.75h.96v3.68c0 .47.08.81.23 1.02.15.2.39.3.72.3.28 0 .51-.07.7-.21.19-.14.34-.28.45-.41v-4.38h.96v5.71Zm5.57-4.96h-.71c.18.3.27.64.27 1.02 0 .3-.05.57-.15.81-.1.24-.24.45-.42.61-.18.17-.39.29-.63.38-.24.09-.5.13-.78.13h-.15s-.1 0-.15-.01c-.1.04-.19.1-.3.19-.1.09-.15.2-.15.35 0 .12.05.22.14.29.09.08.24.11.45.11h.73c.27 0 .52.03.75.08.23.05.43.14.6.27.17.12.3.28.4.47.1.19.14.42.14.69 0 .31-.07.59-.2.84s-.32.47-.55.65c-.24.18-.53.33-.87.43-.34.1-.72.15-1.14.15-.61 0-1.08-.13-1.39-.4-.32-.27-.48-.65-.48-1.15 0-.21.04-.4.11-.55.08-.16.16-.29.27-.41.1-.12.21-.21.32-.27.11-.07.19-.12.26-.16v-.02c-.25-.18-.37-.45-.37-.8 0-.15.03-.28.09-.39.06-.11.13-.2.2-.27.08-.07.15-.13.23-.17.08-.04.13-.07.17-.09v-.02c-.29-.14-.53-.35-.71-.64-.18-.29-.27-.66-.27-1.11 0-.32.05-.6.15-.84.1-.24.24-.44.42-.6.17-.16.38-.28.61-.36.23-.08.49-.12.76-.12s.52.05.76.14h1.74l-.13.75Zm-2.65 4.78c-.17 0-.31-.01-.44-.04-.07.04-.14.09-.21.14-.07.06-.13.12-.18.2-.06.08-.1.17-.14.28-.04.11-.05.23-.05.38 0 .61.34.92 1.01.92.58 0 1.01-.11 1.29-.34.28-.23.42-.49.42-.78 0-.28-.09-.47-.26-.59s-.41-.17-.7-.17h-.73Zm1.27-3.76c0-.41-.1-.71-.29-.88-.19-.17-.42-.26-.68-.26-.28 0-.52.09-.71.26-.2.17-.3.47-.3.88s.1.71.3.88c.2.17.43.26.69.26.28 0 .51-.09.71-.26.19-.18.29-.47.29-.88Zm6.07.15c0 .25 0 .46-.02.64s-.03.33-.05.47h-2.92c.03.67.18 1.17.43 1.49.26.32.63.48 1.11.48.17 0 .32-.02.45-.06.13-.04.25-.09.35-.14.1-.06.18-.11.25-.17.07-.05.12-.1.15-.13l.36.68s-.1.1-.18.17c-.08.08-.19.15-.32.23-.14.08-.3.14-.5.2s-.43.08-.7.08c-.36 0-.68-.06-.97-.18-.29-.12-.54-.3-.74-.55-.2-.25-.36-.57-.47-.95-.11-.38-.17-.85-.17-1.39 0-.51.06-.95.17-1.32.12-.37.27-.67.47-.91.2-.24.43-.41.69-.53.26-.12.54-.17.84-.17.55 0 .98.17 1.29.52.31.34.46.86.46 1.55Zm-1.81-1.29c-.34 0-.61.14-.82.43-.21.29-.33.7-.36 1.24h2.08s.01-.1.02-.17v-.24c0-.4-.08-.71-.24-.92-.16-.22-.39-.33-.69-.33Zm6.21 5.07v-3.68c0-.48-.08-.83-.24-1.04-.16-.21-.41-.32-.74-.32-.29 0-.52.07-.71.21-.19.14-.34.28-.45.42v4.4H81v-5.71h.88v.64h.02s.08-.12.15-.21c.08-.09.18-.18.31-.26.13-.08.28-.16.45-.22.17-.06.37-.09.6-.09.25 0 .48.04.69.11.21.07.38.2.52.36.14.17.25.38.33.65.08.27.12.59.12.98v3.75h-.96Zm2.14-2.77c0-.58.08-1.06.23-1.45.15-.39.34-.7.58-.94s.51-.41.81-.51c.3-.1.6-.15.9-.15.18 0 .34.01.48.04.13.03.25.06.33.1v-2.74l.96-.11v8.52h-.88v-.61h-.02s-.07.11-.13.2c-.06.08-.15.17-.26.25-.11.08-.25.16-.42.21-.17.06-.36.09-.58.09-.27 0-.53-.05-.77-.16s-.46-.28-.64-.51c-.18-.23-.33-.54-.43-.91-.11-.37-.16-.81-.16-1.34Zm2.26 2.06c.15 0 .29-.02.4-.06.12-.04.22-.09.31-.15s.16-.12.22-.18.11-.12.14-.17v-3.52c-.09-.05-.19-.1-.3-.14-.12-.04-.26-.06-.43-.06-.22 0-.43.04-.62.11-.19.08-.36.2-.51.37-.14.18-.26.4-.34.68-.08.28-.12.62-.12 1.02s.03.73.1.99c.07.27.16.48.28.64.12.16.25.28.4.35.15.07.31.11.48.11ZM188.98 49.85h-1.01v11.26h1.01c3.82 0 6-1.95 6-5.77s-2.2-5.49-6-5.49Zm.06 12.35h-4.25s-.02-.08-.02-.18c0-.31.16-.58.66-.7l.84-.19V49.79l-1.21-.27c-.19-.04-.27-.1-.27-.21 0-.18.14-.41.21-.55h4.03c4.85 0 7.75 1.87 7.75 6.53s-2.88 6.92-7.75 6.92Zm15-5.67c.04-.16.1-.49.1-.82 0-1.09-.43-2.08-1.71-2.08s-2.05.95-2.22 2.9h3.84Zm-3.86.94c.02 2.47 1.15 3.8 3.02 3.8 1.27 0 1.95-.55 2.4-.92.16.12.23.39.25.56 0 .49-1.25 1.52-3.31 1.52-2.18 0-4.03-1.34-4.03-4.73s2.03-5.08 4.11-5.08 3.18 1.34 3.18 3.27c0 .51-.1 1.07-.21 1.58h-5.4Zm21.81 3.72 1.17.25c.19.04.27.1.27.25 0 .2-.12.41-.2.51h-4.13s-.02-.08-.02-.14c0-.35.23-.53.6-.64l.72-.23V56.2c0-1.77-.9-2.28-1.87-2.28-1.38 0-2.08.57-2.61 1.05.06.35.12.72.12 1.13v5.08l1.17.25c.19.04.27.1.27.25 0 .2-.12.41-.19.51h-4.13s-.02-.08-.02-.14c0-.35.23-.53.6-.64l.72-.23v-4.99c0-1.77-.9-2.28-1.87-2.28-1.29 0-1.99.51-2.49.95v6.31l1.17.25c.2.04.27.1.27.25 0 .2-.12.41-.19.51h-4.13s-.02-.08-.02-.14c0-.35.23-.53.6-.64l.72-.23V53.9l-1.42-.19s-.02-.08-.02-.16c0-.33.25-.57.72-.6l2.3-.23-.12 1.3h.06c.35-.37 1.31-1.42 3.12-1.42 1.13 0 2.03.55 2.49 1.56.51-.57 1.56-1.56 3.33-1.56s3 1.23 3 3.49v5.08Zm4.14-3.66c0 2.61 1.17 3.84 2.71 3.84s2.75-1.23 2.75-3.84-1.21-3.86-2.75-3.86-2.71 1.25-2.71 3.86Zm7.17-.1c0 3.35-2.34 5.01-4.6 5.01s-4.29-1.56-4.29-4.81 2.3-5.01 4.66-5.01 4.23 1.46 4.23 4.81Zm9.05-3.6-2.75 3.16 3.29 4.25.99.21c.19.04.27.1.27.25 0 .2-.12.41-.19.51h-2.51l-3.25-4.46h-.9v3.49l.99.21c.2.04.27.1.27.25 0 .2-.12.41-.19.51h-3.95s-.02-.08-.02-.14c0-.35.23-.53.6-.64l.72-.23V49.26l-1.42-.2s-.02-.08-.02-.16c0-.33.25-.56.72-.6l2.3-.23v8.71h1.17l2.61-3-1.36-.29s-.02-.12-.02-.16c0-.31.25-.47.55-.47h3.14c.16 0 .23.08.23.19s-.1.35-.14.43l-1.13.35Zm5.18.55h.06c.41-.62 1.13-1.75 2.47-1.75.92 0 1.31.41 1.31.95 0 .37-.18.64-.31.82-.23-.1-.72-.29-1.29-.29-1.07 0-1.64.43-2.12 1.11v5.98l1.36.25c.19.04.27.1.27.25 0 .2-.12.41-.19.51h-4.32s-.02-.08-.02-.14c0-.35.23-.53.6-.64l.72-.23v-7.27l-1.42-.19s-.02-.08-.02-.16c0-.33.25-.57.72-.6l2.3-.23-.12 1.64ZM256.2 58c-1.77.14-2.82.66-2.82 1.77 0 .86.49 1.44 1.4 1.44s1.64-.64 1.95-1.01v-2.24l-.53.04Zm2.1 2.18c0 .86.31 1.11.68 1.11.43 0 .64-.19.7-.25.08.12.17.39.17.55 0 .19-.45.8-1.52.8-.86 0-1.38-.37-1.5-1.34h-.04c-.21.33-.97 1.4-2.67 1.4-1.46 0-2.47-.97-2.47-2.49 0-2.05 2.34-2.86 4.54-2.86h.53v-.94c0-1.68-.45-2.49-1.71-2.49-.55 0-.99.14-1.15.19-.18.35-.35 1.11-.45 1.71 0 0-.31.02-.41.02-.6 0-.95-.27-.95-.84 0-1.19 1.66-2.12 3.25-2.12 2.05 0 3 1.15 3 3.29v4.27Zm7.64-6.31h-2.73v6c0 .74.25 1.44 1.27 1.44.76 0 1.46-.37 1.62-.49.08.12.14.41.14.57 0 .17-.64 1.05-2.32 1.05s-2.28-.93-2.28-2.24v-6.33h-1.48s-.02-.08-.02-.14c0-.37.23-.55.6-.64l.97-.23.37-2.61h1.13v2.61h2.92l-.19 1.01Zm3.1-3.27c-.62 0-1.11-.43-1.11-1.11s.49-1.13 1.11-1.13 1.13.45 1.13 1.13-.51 1.11-1.13 1.11Zm.8 10.6 1.17.25c.2.04.27.1.27.25 0 .2-.12.41-.2.51h-4.13s-.02-.08-.02-.14c0-.35.23-.53.6-.64l.72-.23v-7.27l-1.42-.19s-.02-.08-.02-.16c0-.33.25-.57.72-.6l2.3-.23v8.45Zm8.06-4.66c.04-.16.1-.49.1-.82 0-1.09-.43-2.08-1.71-2.08s-2.05.95-2.22 2.9h3.84Zm-3.86.94c.02 2.47 1.15 3.8 3.02 3.8 1.27 0 1.95-.55 2.4-.92.16.12.23.39.25.56 0 .49-1.25 1.52-3.31 1.52-2.18 0-4.03-1.34-4.03-4.73s2.03-5.08 4.11-5.08 3.18 1.34 3.18 3.27c0 .51-.1 1.07-.21 1.58h-5.4Z" class="cls-5"/>
	<path d="M328.88 55.28c.15-.26.41-.42.18-.79-.16-.26-.42-.22-.63-.38.03.02-.08-.35-.12-.4-.18-.27-.38-.57-.61-.72-.38-.26-.47-.71-1-.87-.15-.04-.48-.17-.6-.21-.12-.05-.22-.03-.31 0-.13-.04-.25-.08-.36-.11-.06-.01-.11-.03-.16-.03s-.1-.01-.15-.01c-.3-.35-.42.34-.65.11-.12-.12-.12-.35-.12-.46-.12 0-.35 0-.49.15-.06.01-.11.03-.16.04-.05.01-.11.02-.16.03-.21.03-.42.05-.73.09-.06 0-.12.02-.18.03-.4.1-.71.37-.98.69-.05.03-.1.06-.15.08-.05.02-.11.04-.17.06-.05.03-.11.05-.16.08-.06.01-.11.03-.16.04l-.15.06c-.05.03-.09.06-.13.1-.18.18-.22.49-.45.85-.04.03-.09.05-.13.09-.08.07-.16.15-.22.27l-.09.09c-.06.07 0 .13-.09.21-.13.11-.26-.03-.36.15-.07.13.23.16.24.12-.05.24-.14.1-.27.25-.15.19-.1.25-.18.42h-.22c-.04.1-.05.21-.03.32-.07.14-.16.25-.25.39-.15.25-.11.46-.18.78-.03.12-.15.13-.15.15-.04.15 0 .27 0 .37 0-.1.12.22.11.21 0-.04-.17.11-.17.19 0 .13.19-.01.2.12 0 .15-.14.29-.18.44-.11.43-.02.88.07 1.3.01.05.02.1.03.14.11.33.4.41.54.68.05.09.07.2.07.34.23.46.46.92 1.09 1.15.03.03.05.06.08.09.02.03.05.07.07.1.11.14.17.33.28.47.16.2.6.51.87.55.3.05.44-.14.86-.05.2.04.37.05.54.04.06 0 .11 0 .17-.01.19-.04.54.07.77-.04v-.35c.23-.12.35.23.58.33.04.03.08.04.12.04.09 0-.05-.12.03-.18.22-.16.23-.1.47-.09.13 0 .02.09.28.1.16 0 .31-.15.47-.17-.05 0 .08.25.24.22.07-.02.22-.34.24-.35.29-.13.08.11.24.09.21-.02.28-.14.51-.18.05 0 .1-.01.16-.01.17.07.33.05.47-.02.05-.02.09-.05.13-.08.43-.28 1.35-.63.89-1.32-.03-.03-.07-.06-.11-.08-.04-.02-.09-.04-.14-.05-.1.02-.22.02-.33.13.12-.35.12-.69-.19-1.06-.03-.05-.07-.1-.1-.15-.3-.44-.7-.73-1.27-.33-.05 0-.1.01-.15.02-.33.07-.61.25-.97.27-.24.01-.34-.03-.54.05.03.06.04.14 0 .18-.1.02-.23 0-.33-.02-.22.02-.37-.04-.58.05-.02 0-.06.06-.11.11-.25.15-.51.26-.79.34-.06.02-.11.03-.17.05-.12 0-.23.02-.34.01-.35-.2-.92.03-1.22-.22-.05-.04-.09-.08-.13-.12-.17-.18-.29-.41-.31-.7V59.34c-.03-.36-.03-.71.16-.84l.03-.09c.08-.18.2-.25.39-.02.18.22.04.39.24.51.12.08.73.06.85.02.22-.06.18-.2.3-.23.31-.1.66.06.98.03.37-.04.32-.66.54-.78.12-.07-.16.74.8.5.18-.05.32-.15.5-.18.17-.04.4.06.55 0 .29-.11.12-.04.07-.25 0-.03-.11-.28-.04-.43.02-.04.31.17.27.2.25-.15.06-.18.34-.15.11.01.2.16.34.18.4.04.62-.45.89-.69.34-.3.24-.27.36-.67.05-.16.45-.27.45-.27.09-.12-.22-.37-.23-.43-.06-.38.11-.26.23-.47Zm-2.87.09s-.1.04-.15.05c-.11.02-.23.03-.36 0-.04.02-.08.04-.13.07-.08.05-.17.11-.28.17-.05.04-.11.07-.17.1-.06.02-.13.04-.21.04-.05.03-.1.05-.15.08l-.12.09h-.18c-.06 0-.12 0-.18.01-.37.03-.72.16-.98.35-.06.01-.12.02-.18.02h-.17c-.05.01-.1.03-.13.05.03-.02-.07-.03-.2-.04-.05.03-.1.05-.14.07-.12.04-.24.08-.35.1-.24.04-.3.1-.53-.02q.12-.12.17-.29c-.12 0-.35.35-.45-.31.02-.05.05-.09.08-.13.05-.06.27-.27.32-.32.05-.07.11-.14.16-.2l.17-.17c.52-.48.86-.02 1.2-.56.13-.03.27-.03.39-.02.04 0 .09-.01.14-.03.09-.02.19-.06.28-.12.06-.03.11-.06.17-.09.11-.05.23-.08.36-.07.06-.03.12-.07.18-.1.28-.16.57-.25.92.04q0-.12-.01-.26c.01-.08.07-.13.24-.06.04 0 .08-.01.11-.02.11-.02.22-.03.33.07.05.03.09.07.14.12.14.13.27.28.44.43.07.02.13.07.11.16-.32.25-.44.71-.84.77Z" style="fill:#1a9eda;stroke-width:0"/>
	<path d="M289.68 59.24c.23 0 .35-.13.43-.23.03-.03.06-.05.09-.08.18-.13.48-.23.94-.02l-.03.06h.06s.05.11.07.15c.04.01.1.04.2.07.05.02.08.03.09.04.02.01.08.03.13.06.12.06.27.12.32.15.1.06.13.14.16.21.02.05.04.09.07.12.04.04.11.06.18.08.08.02.17.05.24.11.06.06.05.17.02.29 0 .05-.02.12-.02.16h.02c.04-.02.09-.04.14-.01.05.03.06.1.07.12.03.24 0 .44-.12.62-.08.13-.21.29-.35.26-.06-.01-.1-.05-.13-.1 0 .08 0 .15-.03.22-.08.15-.17.1-.21.08-.04-.02-.07-.03-.13.01-.02.02-.05.09-.06.13-.02.06-.03.08-.06.1-.04.02-.09.04-.15.05-.09.02-.19.05-.29.14l-.09.09c-.29.44-.64-.15-.87-.03-.12.12.35.12.24.24-.35.24-.59.48-1.07.31-.05-.03-.09-.03-.12 0-.14.11-.04.72-.38.45-.12.05-.26.07-.38.09-.12.02-.23.03-.31.03-.05.02-.09.04-.14.05-.15.05-.33.1-.54.15-.14.03-.27.05-.38.05-.36 0-.57-.15-.77-.38-.11-.13-.23-.21-.35-.3-.08-.06-.17-.12-.25-.2-.06-.06-.04-.16-.02-.27 0-.04.02-.12.02-.15-.01 0-.04.01-.06.02-.05.02-.12.05-.18.02h-.01l-.04-.06c0-.01-.03-.04-.03-.09 0-.14-.21-.29-.23-.29l.02-.06-.05.03-.02-.04c-.17-.33-.19-.58-.19-1.2 0-.1 0-.2-.01-.31-.02-.25-.03-.5.02-.71.04-.16.09-.21.15-.26.03-.02.04-.03.05-.09v-.03s-.03-.01-.11 0h-.04c-.1-.01-.11-.09-.12-.11 0-.09.08-.17.17-.22v-.02c0-.05.02-.12.04-.21 0-.31.34-.43.23-.77.11 0 .22 0 .33-.01-.11-.23-.22-.45-.15-.68.01-.05.03-.11.05-.16 0-.02.01-.02.09-.08.05-.04.17-.13.19-.15.04-.06.06-.12.07-.17.04-.12.07-.17.28-.24.11-.04.21-.04.33-.01-.01-.02-.02-.05-.02-.07 0-.03-.01-.04-.03-.06-.03 0-.08 0-.11.01-.13.02-.2.03-.21-.04-.05-.16.04-.25.1-.32.01-.02.03-.03.04-.05-.05 0-.09 0-.13-.04-.03-.04-.04-.09-.02-.16.05-.15.16-.14.2-.14.05-.13.08-.17.12-.21.02-.02.05-.04.08-.1.05-.07.06-.11.07-.17.02-.06.04-.13.11-.25.04-.07.1-.12.17-.18.06-.05.12-.11.14-.16.1-.22.15-.47.19-.72.02-.12.04-.24.07-.36.01-.06.03-.12.05-.17.43-.57.66-.82.87-1.62s-.05-.04-.05-.04l.03-.05.12-.12c.06-.06.13-.12.15-.18.01-.03.02-.11.03-.19.01-.13.03-.27.07-.38.02-.06.05-.1.08-.13.03-.04.07-.08.11-.17l.06.02v-.06s.14-.08.16-.11c.03-.2.2-.63.21-.63.06-.12.16-.17.23-.18.04-.1.07-.13.11-.18.02-.02.04-.05.07-.1 0-.04.03-.11.07-.22.02-.05.04-.11.04-.13l.03-.06h.02c.01 0 .03-.02.04-.06.05-.11.07-.2.08-.28.02-.11.04-.23.14-.38 0 0 .19-.29.32-.37v-.02l.1.02c-.24-.34.2-.8.37-.97l.05-.05s.48-.51.71-.4c.1.05.12.19.07.43.02 0 .05.01.07.02.22.07.32.11.35.16.06.12.04.26.03.41-.01.13-.03.26 0 .38.05.07.07.11.1.14.02.02.03.04.06.07.22.14.46.24.49.59.04.03.11.07.17.14.05.1.05.34.05.46-.61.18-.61.54-.92 1.06.02.06.06.13.06.21 0 .09-.02.19-.11.34-.03.03-.06.05-.09.08-.12.11-.23.24-.39.27l-.12.09c-.04.03-.08.05-.12.08-.08.04-.17.08-.26.09v.15c0 .03.04.03.15 0 .07-.01.15-.03.17.04.03.08-.13.32-.23.36-.02 0-.04.01-.06 0 0 .05 0 .11-.01.17-.01.18-.02.39-.06.5-.06.19-.19.19-.27.19-.07 0-.09 0-.12.03.02.15 0 .3-.05.43-.05.14-.13.26-.23.36-.19.16-.31.29-.48.19.15.3-.23.64-.4.77-.03.04-.06.07-.06.08-.01.04.03.13.07.2.06.11.11.2.07.29-.03.06-.09.05-.17.05h-.05c-.02.05-.04.09-.04.13-.01.07-.04.13-.07.18-.71.28-.36 1.2-.83 1.53-.08.09-.16.17-.25.23-.03.04-.05.08-.07.13-.02.04-.04.09-.06.15-.03.1-.05.3-.07.51-.03.29-.06.59-.13.74-.03.06-.06.1-.1.12-.04.03-.07.04-.11.05-.06.09-.09.19-.1.29 0 .05-.02.1-.02.15.12.39-.18.36-.3.6-.02-.07-.06-.08-.08-.15-.11.24-.18.89.22.91.04 0 .08-.02.12-.04.13-.04.27-.1.38-.08.04-.01.08-.02.1-.03.02-.01.05-.05.07-.07l.09-.09.04.02c.08-.03.2-.07.21-.08.03-.02.04-.05.05-.1 0-.04.02-.09.06-.12.06-.04.13-.02.18 0 .05.01.08.02.11 0 .04-.03.08-.09.13-.14.06-.08.12-.16.2-.2.04-.02.08-.04.12-.05.16-.09.3-.05.41 0-.04-.08-.03-.2-.03-.27Z" class="cls-5"/>
	<path d="M304.22 55.32c.15-.27.41-.42.18-.79-.16-.26-.42-.22-.63-.38.03.02-.09-.34-.12-.4-.18-.27-.38-.57-.61-.72-.38-.26-.47-.71-1-.87-.15-.04-.48-.17-.6-.21-.12-.04-.22-.03-.31 0-.13-.04-.25-.08-.36-.11-.06-.01-.11-.03-.16-.03s-.1-.01-.15-.01c-.3-.35-.42.34-.65.11-.12-.12-.12-.35-.12-.46-.12 0-.34 0-.49.15-.06.01-.11.03-.16.04-.05.01-.11.02-.16.03-.21.03-.42.05-.73.09-.06 0-.12.02-.18.03-.4.1-.71.37-.98.69-.05.03-.1.06-.15.08-.05.02-.11.04-.17.06-.05.02-.11.05-.16.08-.06.01-.11.02-.16.04l-.15.06c-.05.03-.09.06-.13.09-.18.18-.22.49-.45.85-.04.02-.09.05-.13.09-.08.07-.16.15-.22.27l-.09.09c-.06.07 0 .13-.09.21-.13.11-.26-.03-.36.15-.07.13.23.16.24.12-.05.24-.14.1-.27.25-.15.19-.09.25-.18.42h-.22c-.04.1-.05.21-.03.32-.07.14-.16.25-.25.39-.15.25-.11.46-.18.78-.03.12-.15.13-.15.15-.04.15 0 .28 0 .37 0-.1.12.22.11.21 0-.04-.17.11-.17.19 0 .13.19-.01.2.12 0 .15-.14.29-.18.44-.11.43-.02.88.07 1.3 0 .05.02.1.03.14.11.33.4.41.54.68.05.09.07.2.07.34.23.46.46.92 1.09 1.15.03.03.05.06.08.09.02.03.05.07.07.1.11.14.17.33.28.47.16.2.6.51.87.55.31.05.44-.13.86-.05.2.04.37.05.54.04.06 0 .11 0 .17-.01.19-.04.54.07.77-.04v-.35c.23-.11.35.23.58.33.04.03.08.04.12.04.09 0-.05-.12.03-.18.22-.16.23-.1.47-.09.13 0 .02.09.28.1.16 0 .31-.15.47-.17-.05 0 .08.26.24.22.07-.02.22-.34.24-.35.29-.14.08.11.24.09.21-.02.28-.14.51-.18.05 0 .1-.01.16-.01.17.07.33.05.47-.02.05-.02.09-.05.13-.09.43-.28 1.35-.63.89-1.32-.03-.03-.07-.06-.11-.08-.04-.02-.09-.04-.14-.05-.1.02-.22.02-.33.13.12-.35.12-.69-.19-1.06-.03-.05-.07-.1-.1-.15-.31-.44-.7-.73-1.27-.33-.05 0-.1.01-.15.02-.33.07-.61.25-.97.27-.24.01-.34-.03-.54.05.03.06.04.14 0 .18-.1.02-.23 0-.33-.02-.22.02-.37-.04-.58.05-.02 0-.06.06-.11.11-.25.15-.51.26-.79.34-.06.02-.11.03-.17.05-.11 0-.23.02-.34.01-.35-.21-.92.03-1.22-.23-.05-.04-.09-.08-.13-.12-.17-.18-.29-.41-.31-.7V59.35c-.03-.35-.03-.71.16-.84l.03-.09c.08-.18.2-.25.39-.02.18.22.04.39.24.51.12.08.73.06.86.02.22-.06.18-.2.3-.23.31-.11.66.06.98.03.37-.04.32-.66.54-.78.12-.07-.16.74.8.5.18-.05.32-.15.5-.18.17-.04.4.06.55 0 .29-.1.12-.04.07-.25 0-.03-.11-.28-.04-.43.02-.04.31.17.27.2.25-.15.06-.18.34-.15.11.01.2.16.34.18.4.04.62-.45.89-.69.34-.3.24-.27.36-.67.05-.16.45-.27.45-.27.09-.12-.22-.37-.23-.43-.06-.38.11-.26.23-.47Zm-2.02-.68c-.32.25-.44.71-.84.77-.05.02-.1.04-.15.05-.11.02-.23.03-.36 0-.04.02-.08.04-.13.07-.09.05-.17.11-.28.17-.05.04-.11.07-.17.1-.06.02-.13.04-.21.04-.05.03-.1.05-.15.08l-.12.09h-.18c-.06 0-.12 0-.18.01-.37.03-.72.15-.98.35-.06.01-.12.02-.18.02h-.17c-.05.01-.2.02-.33.01-.05.03-.1.05-.14.07-.12.04-.24.08-.35.1-.24.04-.36.04-.59-.08.04-.09.02-.07.09-.16-.12 0-.28.13-.31-.38.02-.05.05-.09.08-.13.05-.06.1-.12.16-.17.06-.05.11-.1.16-.15.05-.07.11-.14.16-.2l.17-.17c.52-.48.86-.02 1.2-.56.13-.03.27-.03.39-.02.04 0 .09-.01.14-.03.09-.02.19-.06.28-.12.06-.03.11-.06.17-.09.11-.05.23-.08.36-.07.06-.03.12-.07.18-.1.28-.16.57-.25.92.04q0-.12-.01-.26c.01-.08.07-.13.24-.06.04 0 .08-.01.11-.02.11-.02.22-.03.33.07.05.03.09.07.14.12.14.13.27.28.44.43.07.03.12.07.11.16Z" class="cls-6"/>
	<path d="M311.49 54.62s.09-.16.12-.25c-.04.02-.07.04-.11.06-.14.09-.27.19-.35.34.17-.35.28-.76.55-1.02.04-.04.09-.08.15-.12 0-.02.34.1.12-.16h-.12c-.04-.31.03-.33.14-.34.07-.01.16-.03.21-.12.08-.14.16-.36.22-.58.01-.04.02-.09.03-.13.02-.11.05-.2.09-.3.02-.05.04-.09.07-.14.38-.32.15-1.13.73-1.01h.11c0-.11 0-.35.15-.41l.1-.06-.12-.03c.21-.19-.36.04-.14-.25.05 0 .11-.01.17-.04.06-.03.11-.07.15-.16.3-.69.5-.89.63-1.03.15-.15.21-.23.24-.67v-.03l-.03-.01c-.11-.04-.11-.07-.11-.07 0-.03.11-.08.15-.11.09-.05.16-.08.16-.14 0-.05-.06-.07-.08-.08-.23-.08-.22-.2-.21-.34 0-.09.01-.18-.05-.27-.06-.09-.13-.18-.2-.25-.06-.07-.13-.15-.14-.18l.02-.05h-.32c0-.17-.13-.5-.39-.65h-.04c-.19.07-.55.31-.54.51 0 .05.03.12.15.16-.25.4-.52.87-.53 1.01-.14.16-.25.25-.36.34-.05.04-.1.08-.15.13-.57.6-.34 1.52-1.04 2.02-.03.05-.06.1-.08.16-.02.05-.04.09-.05.14-.2.58-.55 1.15-.75 1.78-.04.04-.1.09-.15.14-.07.06-.14.12-.21.19-.03.03-.06.06-.09.1-.15.68-.38 1.37-1 1.8-.03.04-.05.07-.08.12-.02.04-.04.09-.05.14-.01.05-.02.11-.01.17.19-.05.31.07.31.3-.12 0-.23 0-.36.05-.05.05-.09.12-.11.18l-.03.06c-.09.16-.29.66-.36.85v.03c-.1.23-.19.43-.28.62-.03.06-.07.12-.1.18-.12.1-.22.23-.31.35-.04.06-.08.13-.11.19-.3.38.28.26.28.49-.23 0-.35.12-.49.23-.04.04-.07.09-.1.14-.23.34-.34.8-.53 1.15-.03.06-.05.12-.08.18-.18.43-.35.84-.59 1.16-.05.05-.1.1-.14.15-.09.1-.18.2-.25.32-.05.04-.11.07-.16.11-.14.09-.29.18-.42.32l-.11.12.16-.04s.06.01.09.06c-.2.05-.21.1-.22.36v.1l.06-.02c.06-.01.12-.01.2 0h.16l-.04.17.08-.02s.01.04.02.07c.03.13.1.38.41.75v.02h.04c.05 0 .11-.05.17-.09.01 0 .03-.02.04-.03 0 .02-.01.05-.02.07-.02.08-.05.15-.05.18v.07h.05c.49.37 1.06.14 1.68.09.05-.01.1-.03.15-.06.1-.05.19-.13.26-.24l.07-.19c.11.12.16-.04.24.23.04.03.08.04.15.01.03-.01.05-.03.08-.04.29-.15.52-.18.84-.21.07 0 .14-.02.21-.02.12.02.23.02.33 0 .05 0 .1-.02.15-.04.46-.2.81-.54 1.33-.64.07 0 .12-.01.18-.02.06 0 .11-.02.16-.03.52-.09.99-.55 1.39-.77.06-.02.12-.03.19-.04h.2c.04-.03.07-.05.1-.07.03-.02.07-.03.09-.04.04-.02.07-.03.1-.05.1-.05.2-.11.31-.19.12-.09.23-.16.34-.23.1-.06.21-.13.32-.21.03-.02.07-.05.12-.09.21-.15.5-.37.57-.47.05-.07.12-.21.18-.34.04-.07.07-.14.09-.17.02-.03.1-.05.15-.06.07-.02.13-.04.12-.09 0-.05-.05-.07-.16-.1v-.12c0-.02 0-.04.01-.06.02 0 .04-.01.07-.01.47-.09.55-.37.54-.59l-.02-.06c-.07-.18-.12-.32-.03-.4.02-.02.04-.03.06-.05.04-.03.09-.06.16-.08.03-.01.06-.03.08-.04 0-.07.02-.14.05-.2.03-.06.06-.12.1-.18.24-.33.7-.56.58-1.02h-.23c0-.23.46-.35.36-.75 0-.05.01-.1.02-.15 0-.1.02-.21.02-.3 0-.13.02-.26.03-.37 0-.03 0-.05.01-.08s0-.02 0-.02c-.06-.17-.16-.3-.26-.45-.07-.1-.13-.19-.2-.31-.02-.03-.04-.05-.06-.07-.03-.03-.07-.05-.11-.06-.28-.43-.74-.78-1.2-1.01-.04.01-.08.03-.13.05-.13.05-.28.11-.46.03-.06 0-.11 0-.15.01-.09.01-.17.03-.24.06-.1.05-.2.07-.31.09-.1.02-.2.03-.29.05-.13.04-.27.09-.4.15-.04.02-.08.04-.13.06-.54.3-1.24.3-1.69.72-.06.02-.18.09-.23.12Zm3.68 1.87c.03.15 0 .25-.06.33-.03.04-.07.07-.11.1-.52.27-.52 1.08-1.05 1.27-.03.04-.06.08-.08.12-.04.06-.08.11-.13.16s-.1.1-.15.16c-.05.05-.12.14-.2.24-.03.03-.05.07-.08.1s-.06.07-.09.1c-.35.77-1.39.54-1.96 1.13-.03.01-.07.02-.12.03-.05.01-.1.03-.15.04-.11.03-.23.06-.33.09-.03 0-.06.03-.11.06-.03.02-.07.04-.11.06-.04.02-.09.04-.14.06-.31.22-.66.45-1 .57-.27.08-.23-.11-.23-.23-.11.12-.12.37-.36.23-.05 0-.11.01-.17.02-.06 0-.13.01-.2.01.07-.09.09-.16.12-.24.03-.09.05-.18.15-.3.03-.03.04-.07.04-.11.09-.06.16-.15.23-.25s.13-.22.19-.33c.21-.25.42-.51.68-.75.04-.04.09-.08.13-.12l.09-.09.09-.09c.29-.87.64-1.1 1.53-1.28.04-.02.08-.04.12-.07.12-.07.23-.13.32-.2.04-.04.07-.09.1-.14.03-.06.07-.11.11-.16l.12-.15c.19-.03.3-.26.42-.38.12 0 .12.23.12.35.35-.35.58-.58 1.03-.71.04-.01.07-.03.11-.04.47.06.81-.63 1.27-.17 0 .12-.12.23-.12.38v.19Z" class="cls-2"/>
	<path d="M342.77 62.83c0-.13 0-.28-.06-.41-.01-.03-.02-.06-.04-.08-.11-.17-.3-.18-.47-.18-.03-.04 0-.08.08-.17.03-.03.06-.07.08-.1.02-.03.03-.07.03-.11 0-.04-.03-.08-.07-.11-.24-.44-.47-1.13-1.17-1.16-.05.02-.1.04-.16.08s-.11.09-.16.16h-.12c-.11-.02-.21-.09-.24-.12v-.03h-.08s-.02.01-.03.01c-.16.03-.24.05-.27.09-.06-.01-.1-.02-.14-.03-.03 0-.05-.01-.07-.02l.01-.01c.04-.04.1-.12.16-.24.02-.04.02-.08.03-.12.04-.43.49-.73.59-1.13.02-.1.03-.21 0-.32.04-.04.09-.08.14-.12.05-.04.1-.08.14-.13 0-.04 0-.07.03-.1.02-.03.05-.06.08-.09.34-.6.57-1.17.83-1.69l.03-.04c.01-.2-.05-.31-.09-.39 0-.01-.01-.03-.02-.04l-.04.02-.04.05v-.13c-.01 0-.07.02-.11 0-.18-.18-.2-.34-.33-.5-.04-.04-.07-.07-.12-.1-.05-.03-.1-.05-.17-.07-.64-.13-.64-1.05-1.3-1.15-.05 0-.11 0-.17.03-.55.19-.89.88-1.42 1.05-.05.02-.1.04-.16.06l-.18.03c-.05.02-.09.05-.14.08-.13.08-.25.17-.35.28l-.12.12c-.12.12-.22.27-.31.45-.04.05-.08.09-.12.13-.04.04-.09.08-.15.11-.09.08-.18.15-.29.21-.11.06-.22.11-.35.14-.06.05-.06.12-.05.17 0 .04 0 .06-.01.08-.09.08-.2.14-.3.21-.09.05-.17.1-.25.16-.07.06-.14.1-.21.15-.03.02-.06.05-.1.07-.03.02-.06.05-.1.07-.31.43-.89.43-1.28.9-.03.02-.06.04-.08.05-.03-.03-.05-.08-.06-.15.31-.59.77-1.05.54-1.85.12 0 .23 0 .34.12.06-.03.1-.07.12-.11.06-.13 0-.31 0-.51 0-.05 0-.1.01-.15.03-.15.11-.3.31-.47.02-.05.04-.11.07-.17.02-.06.04-.11.07-.16.03-.05.05-.1.09-.15.03-.05.07-.09.11-.13.16-.57.27-1.26.38-1.8-.01-.06-.03-.11-.04-.16-.1-.3-.29-.5-.56-.59-.03-.01-.05 0-.07 0-.04.02-.06.06-.07.11 0 .02-.02.05-.01.05 0 0-.01 0-.04-.04-.04-.04-.02-.19 0-.31.02-.11.03-.22.01-.29-.02-.06-.09-.05-.18-.04-.02 0-.05 0-.07.01 0-.03 0-.08.01-.12.01-.07.03-.14 0-.2-.02-.03-.08-.1-.13-.16l-.06-.07h-.01c-.2-.06-.3-.07-.36-.03-.05.04-.05.1-.05.15 0 .06 0 .12-.05.17-.04.04-.03.11-.01.19v.07h-.04c-.19 0-.2 0-.21.04-.01.07-.03.13-.04.18-.44.55-.09 1.35-.79 1.87-.03.04-.06.08-.08.13-.14.39-.11.82-.57 1.05-.02.13.15.08.2.14-.19.04 0 .35-.21.36-.03.03-.07.07-.11.1-.1.09-.17.16-.23.22-.03.7-.49.7-.71 1.38 0 .04-.03.14-.05.23-.02.1-.05.2-.06.23-.03.07-.06.11-.09.17l-.08.15h-.06c-.07 0-.15 0-.19.06-.04.06.01.18.1.38.02.06.06.14.08.2l-.1-.1c-.18-.18-.18-.17-.21-.17l-.03.02c-.04.05-.02.12 0 .19 0 .04.02.1 0 .12-.04.07-.06.09-.09.12-.04.03-.09.07-.15.2-.11.25-.11.29-.06.37.02.03.05.08.05.2-.03.03-.07.11-.15.32l-.03.08c-.02.09-.06.3-.08.4-.07.02-.13.21-.15.28v.02h.05v.05h.19c0 .06 0 .12-.01.19 0 .06-.01.12-.01.18s0 .12.03.17c.1.13.21.22.31.29.32.15.78.38.68.81.01.03.02.06.04.1.09.18.24.44.35.55.08.07.12.1.16.09.03 0 .05-.03.06-.05.01-.02.02-.03.06-.03.18 0 .51 0 .59-.05.11-.05.68-.32.89-.41l-.02-.05h.04s.12-.25.14-.28c.02-.02.08-.06.12-.1.02-.02.05-.05.08-.07l.12-.06c.05-.04.11-.06.16-.07.06-.01-.06-.13-.09-.1-.03-.03-.05-.07-.07-.11-.01-.04-.02-.09-.02-.15.04.01.08.02.12.02.69.09 1.27-.37 1.65-.82.03-.03.06-.05.1-.09.27-.28.41-.48.71-.73.05-.04.15-.13.2-.16.15-.23.3-.08.42-.08-.12-.12.03-.44.03-.56.23.12.12.58.49.37.06-.03.13-.07.2-.12.09-.04.18-.07.22-.05.01 0 .03.04.02.14 0 .04-.06.1-.14.17-.08.07-.17.2-.26.25-.01.02-.04.04-.08.06-.09.04-.32.04-.32.15s.12.12.26.19c.07 0 .13-.03.17-.07.05.04.08.04.11.08.04.05.09.07.14.09.07.03.1.05.1.09 0 .18-.09.23-.16.26-.04.02-.09.05-.09.1 0 .15.09.21.16.26.03.02.06.05.09.08.14.19.31.33.48.48.08.07.17.15.24.23.17.39.46.7.85.94l.18.09c.32.34.66-.24 1.01.08.06.03.12.05.19.07.07.02.15.04.25.04.05 0 .11 0 .17-.02.06 0 .05-.07.04-.1 0-.06 0-.07.01-.07h.17c.09.01.19.02.27-.01.04-.01.09 0 .14 0 .05 0 .11.01.16 0s.04-.05.04-.17v-.08c.16-.03.29-.05.42-.06h.05c.17.04.29.02.36-.06.01-.02.03-.04.04-.07s0-.04 0-.04Z" style="fill:#3fa535;stroke-width:0"/>
	<path d="M346.89 50.65c.12.35.14.44-.23.68-.03.05-.04.11 0 .24-.02.05-.03.09-.05.14-.1.29-.21.62-.39.9-.02.04-.03.08-.04.12-.04.12-.08.15-.11.17-.02.02-.05.04-.08.08-.03.07-.06.13-.08.19-.14.45-.32.69-.09 1.03-.23-.12-.28-.58-.51-.12-.12.35-.12.81.33 1.17-.01.06-.03.13 0 .17.04.05.09.06.13.07.02 0 .04.01.05.02.04.05.08.05.11.05s.04 0 .07.04v.09c-.01.07-.02.13.01.17.04.04.09.07.14.1.05.03.09.05.13.09.04.04.09.07.15.1.05.03.09.05.12.08.01.02 0 .09-.01.13-.02.09-.03.17.01.22.04.03.22.03.29.02h.02c.08.07.15.11.23.11s.15-.05.24-.18c.05-.07.03-.18.01-.28-.01-.07-.02-.14 0-.18v-.01h.05c.03.01.11.03.13-.04.04-.08.05-.14.07-.19.02-.06.03-.1.07-.15.08-.12.13-.28.18-.43.04-.11.08-.22.12-.3.02-.04.09-.14.14-.23.03-.05.06-.1.07-.12.02-.03.17-.13.2-.15l-.02-.04.04.02v-.03h.01c.02-.06.02-.12.02-.19-.01-.28.12-.54.21-.81.02-.05.03-.09.04-.14.3-.34.07-1.03.63-1.3.02-.04.03-.09.03-.14 0-.04.02-.08.02-.11 0-.04.01-.08.02-.12.02-.12.04-.24.08-.34h.01c.04 0 .12 0 .16-.1.02-.06 0-.13 0-.2.04-.1-.07-.22.14-.22.04 0 .08 0 .11-.02.04-.02.07-.04.1-.09.15-.23.15-.57.15-.8.19.07.28.02.47-.26.02-.03.03-.08.05-.12.02-.04.03-.09.06-.15.05-.12.12-.24.2-.36.06-.09.11-.18.15-.26.03-.07.08-.13.13-.2.11-.14.23-.3.22-.53 0-.04-.03-.07-.07-.09-.04-.02-.1-.03-.15-.04-.07-.06-.12-.08.03-.24 0 .12.06.06.14.04l.02.04s.03-.01.05-.02c.11-.04.3-.12.33-.27.02-.08-.02-.18-.11-.28s-.03.03-.03.03l-.03.03s-.04.01-.11.01c-.04 0-.09 0-.13-.01-.19-.21-.19-.56-.5-.77 0-.01-.03-.06-.04-.09-.02-.05-.03-.08-.05-.1-.04-.04-.1-.03-.17-.02 0-.05-.12.06-.12.06 0-.12 0-.23-.12-.4 0-.08-.04-.14-.1-.19-.07-.05-.16-.07-.25-.07s-.19.02-.26.05c-.31.25-.2.6-.51.87-.07.1-.15.19-.23.28-.08.09-.16.18-.24.26-.04.04-.07.09-.1.13-.06.09-.1.18-.12.28-.05.09-.1.16-.14.23-.04.07-.09.12-.13.18-.04.06-.08.11-.12.18-.22.27-.34.61-.34.96 0 0-.12 0-.12-.12-.12.23-.12.58-.33.79-.03.05-.06.11-.08.16-.05.11-.09.23-.1.35-.02.04-.05.08-.08.12-.03.04-.06.07-.1.11-.04.09-.04.17-.15.22Zm-2.05 8.08c-.43-.05-.5.33-.47.68 0 .07.02.14.03.21.09.11.09.23.09.34q-.12-.12-.18-.19s-.07-.03-.1-.02c-.04.01-.08.04-.12.1-.01.04 0 .08 0 .13.03.15.11.32.06.45-.08 0-.1 0-.1.03 0 .02-.01.05-.02.11 0 .05-.02.13-.04.21-.3.78.05 1.47.7 1.79.04.03.09.05.13.08.09.05.18.1.24.17.01.01.03.04.05.06.06.08.11.14.15.18.01.02.04.03.05.03h.02c.1 0 .17.01.21 0 .05.06.12.12.19.14h.05c.04 0 .08-.02.12-.06.02-.02.02-.02.04-.02.05 0 .09-.02.13-.13-.02-.07-.03-.13-.04-.19-.04-.58.42-1.15.52-1.7.02-.06.04-.13.06-.19l.03-.09c.11-.34.2-.63.07-.94-.06-.14-.38-.4-.46-.46-.04-.03-.08-.08-.12-.13-.04-.04-.07-.09-.11-.13-.05-.04-.12-.03-.19-.01-.03 0-.08.02-.11.01v-.05c.01-.06.02-.11-.02-.14-.05-.04-.1-.08-.15-.11-.25-.21-.48-.32-.72-.44 0 .12.05.15 0 .26Z" class="cls-5"/>
</svg>