<svg xmlns="http://www.w3.org/2000/svg" viewBox="0 0 325.98 164.41">
	<path fill="#101111" d="M195.79 29.23c-4.94 0-8.55 2.54-8.55 7 0 3.67 2.4 5.5 6.34 7.1l2.49 1.03c1.41.61 2.4 1.03 2.4 2.11 0 1.32-1.36 1.93-2.96 1.93-2.49 0-4.65-1.22-6.53-3.15l-3.2 3.85c2.07 2.73 5.5 4.51 9.63 4.51 5.08 0 9.07-2.63 9.07-7.43 0-3.62-2.35-5.4-6.53-7.1l-2.26-.94c-1.69-.66-2.44-1.13-2.44-2.07 0-1.13.99-1.65 2.49-1.65 1.88 0 3.71.8 5.22 2.21l3.2-3.9c-2.12-2.35-4.98-3.52-8.37-3.52m-22.75.05c-2.87 0-5.22 1.03-6.81 2.63v-2.11h-5.83v23.26h6.35V39.46c0-2.68 1.83-4.51 4.42-4.51s4.32 1.83 4.32 4.51v13.58h6.3V38.61c0-5.59-3.29-9.35-8.74-9.35m-28.76 5.12c2.68 0 4.98 1.74 5.03 4.7h-10.57c.7-2.91 2.87-4.7 5.55-4.7m11.18 5.69c0-6.02-4.42-10.81-10.95-10.81-6.86 0-12.17 5.31-12.17 12.17s5.36 12.17 12.74 12.17c3.57 0 6.67-1.27 9.31-3.48l-2.63-4.32c-1.88 1.46-3.95 2.35-6.49 2.35-3.38 0-5.78-1.64-6.53-4.6h16.31c.19-.8.42-2.16.42-3.48m-40.23 7.75c-3.34 0-6.02-2.49-6.02-6.44s2.73-6.39 6.02-6.39c2.91 0 5.87 2.02 5.87 6.44s-2.96 6.39-5.87 6.39m5.78-30.03v14.24c-1.65-1.79-4.04-2.77-6.96-2.77-6.58 0-11.28 5.17-11.28 12.17s4.7 12.17 11.28 12.17c3.19 0 5.87-1.22 7.47-3.43v2.87h5.83V17.81h-6.34ZM88 34.38c2.68 0 4.98 1.74 5.03 4.7H82.46c.71-2.91 2.87-4.7 5.55-4.7m11.18 5.69c0-6.02-4.42-10.81-10.95-10.81-6.86 0-12.17 5.31-12.17 12.17S81.43 53.6 88.81 53.6c3.57 0 6.67-1.27 9.31-3.48l-2.63-4.32c-1.88 1.46-3.95 2.35-6.49 2.35-3.38 0-5.78-1.64-6.53-4.6h16.31c.19-.8.42-2.16.42-3.48M71.09 29.78h-6.35v23.26h6.35V29.78Zm-3.15-12.41c-2.25 0-4.09 1.69-4.09 3.95s1.83 3.9 4.09 3.9 4.04-1.69 4.04-3.9-1.83-3.95-4.04-3.95M58.73 29.5c-2.54 0-4.84 1.08-6.39 3.05v-2.77h-5.83v23.26h6.34V41.43c0-4.18 2.59-6.06 6.25-6.06h1.69v-5.59c-.61-.19-1.22-.28-2.07-.28m-15.79-7.47h-20.4v31.02h6.34v-11.8h11.51v-5.73H28.87v-7.75h14.05v-5.73ZM186.34 87h-3.95v-8.69h-6.34V87h-7.52l8.23-20.58h-6.53l-9.59 24.25v1.69h15.41v5.08h6.34v-5.08h3.95V87Zm-40.47 5.03 4-4.23c3.71-3.9 6.67-7.47 6.67-12.03 0-5.69-4.56-9.92-10.76-9.92-6.82 0-10.95 5.12-10.95 10.25 0 .75.09 1.74.33 2.63h6.39c-.14-.85-.24-1.69-.24-2.26 0-2.82 1.74-4.75 4.37-4.75s4.32 1.93 4.32 4.56c0 2.49-1.46 4.65-4.37 7.8l-11.09 12.03v1.36l22.89-.05v-5.4h-11.56Zm-15.28-23.5-1.83-3.15-4.89 2.11-.61-5.26h-3.62l-.61 5.26-4.89-2.11-1.83 3.15 4.28 3.15-4.28 3.19 1.83 3.15 4.89-2.11.61 5.26h3.62l.61-5.26 4.89 2.11 1.83-3.15-4.28-3.19 4.28-3.15Zm-24.58 23.78c-2.91 0-4.32-.94-4.32-3.62v-9.17h6.58v-5.36h-6.58v-5.88h-6.34v5.88h-3.67v5.36h3.67v9.73c0 5.97 3.57 8.74 9.31 8.74 1.64 0 3.06-.24 4.37-.56v-5.31c-1.22.09-2.26.19-3.01.19m-25.43-18.7c-4.94 0-8.55 2.54-8.55 7 0 3.67 2.4 5.5 6.35 7.1l2.49 1.03c1.41.61 2.4 1.03 2.4 2.11 0 1.32-1.36 1.93-2.96 1.93-2.49 0-4.65-1.22-6.53-3.15l-3.2 3.85c2.07 2.73 5.5 4.51 9.63 4.51 5.07 0 9.07-2.63 9.07-7.43 0-3.62-2.35-5.4-6.53-7.1l-2.26-.94c-1.69-.66-2.44-1.13-2.44-2.07 0-1.13.99-1.65 2.49-1.65 1.88 0 3.71.8 5.22 2.21l3.2-3.9c-2.11-2.35-4.98-3.52-8.36-3.52m-24.02 5.17c2.68 0 4.98 1.74 5.03 4.7H51.05c.71-2.91 2.87-4.7 5.55-4.7m11.18 5.69c0-6.02-4.42-10.81-10.95-10.81-6.86 0-12.17 5.31-12.17 12.17s5.36 12.17 12.74 12.17c3.57 0 6.67-1.27 9.31-3.48l-2.63-4.32c-1.88 1.46-3.95 2.35-6.49 2.35-3.38 0-5.78-1.64-6.53-4.6h16.31c.19-.8.42-2.16.42-3.48M42.93 66.4h-20.4v31.02h6.34v-11.8h11.51v-5.73H28.87v-7.75h14.05v-5.73Z"/>
	<path fill="#a1a1a1" d="M293.94 123.14c2.68 0 4.98 1.74 5.03 4.7H288.4c.7-2.91 2.87-4.7 5.54-4.7m11.19 5.69c0-6.02-4.42-10.81-10.95-10.81-6.86 0-12.17 5.31-12.17 12.17s5.36 12.17 12.74 12.17c3.57 0 6.67-1.27 9.31-3.48l-2.63-4.32c-1.88 1.46-3.95 2.35-6.49 2.35-3.38 0-5.78-1.64-6.53-4.61h16.31c.19-.8.42-2.16.42-3.48m-28.11-10.29h-6.35v23.26h6.35v-23.26Zm-3.15-12.41c-2.26 0-4.09 1.69-4.09 3.95s1.83 3.9 4.09 3.9 4.04-1.69 4.04-3.9-1.83-3.95-4.04-3.95m-10.81 30.55c-2.91 0-4.32-.94-4.32-3.62v-9.16h6.58v-5.36h-6.58v-5.87h-6.34v5.87h-3.67v5.36h3.67v9.73c0 5.97 3.57 8.74 9.3 8.74 1.64 0 3.05-.24 4.37-.56v-5.31c-1.22.09-2.26.19-3.01.19m-29.28 1.03c-1.97 0-3.34-.94-3.34-2.54s1.18-2.35 3.24-2.35h4.98v.28c0 2.73-2.21 4.61-4.89 4.61m1.27-19.69c-4.09 0-7.43 1.55-10.15 4.79l3.29 3.9c1.93-2.02 3.67-3.2 6.16-3.2 2.87 0 4.32 1.55 4.32 4.09v1.03h-5.83c-5.36 0-8.79 2.54-8.79 6.77 0 3.95 2.96 6.96 8.04 6.96 3.01 0 5.45-1.08 7.1-2.82v2.26h5.83v-13.82c0-6.63-4.04-9.96-9.96-9.96m-15.09.24c-2.54 0-4.84 1.08-6.39 3.06v-2.77h-5.83v23.26h6.34V130.2c0-4.18 2.58-6.06 6.25-6.06h1.69v-5.59c-.61-.19-1.22-.28-2.07-.28m-15.61 23.55-9.45-12.97 8.74-10.29h-7.52l-8.36 9.92v-21.9h-6.35v35.25h6.35v-12.88l9.35 12.88h7.24Zm-40.38-18c3.43 0 6.02 2.73 6.02 6.39s-2.59 6.3-6.02 6.3-6.01-2.63-6.01-6.3 2.49-6.39 6.01-6.39m0-5.78c-6.95 0-12.45 5.26-12.45 12.13s5.5 12.17 12.41 12.17 12.55-5.26 12.55-12.17-5.64-12.13-12.5-12.13m-25.99 0c-3.29 0-6.01 1.32-7.75 3.34-1.46-2.11-3.76-3.34-6.91-3.34-2.77 0-5.03.99-6.58 2.58v-2.07h-5.83v23.26h6.35v-13.53c0-2.77 1.74-4.51 4.28-4.51s4.14 1.74 4.14 4.51v13.53h6.35v-13.68c0-2.58 1.74-4.37 4.28-4.37s4.14 1.74 4.14 4.51v13.53h6.35v-14.43c0-5.59-3.24-9.35-8.79-9.35m-43.19 5.12c2.68 0 4.98 1.74 5.03 4.7H89.29c.71-2.91 2.87-4.7 5.54-4.7m11.19 5.69c0-6.02-4.42-10.81-10.95-10.81-6.86 0-12.17 5.31-12.17 12.17s5.36 12.17 12.74 12.17c3.57 0 6.67-1.27 9.31-3.48l-2.63-4.32c-1.88 1.46-3.95 2.35-6.49 2.35-3.38 0-5.78-1.64-6.53-4.61h16.31c.19-.8.42-2.16.42-3.48m-43.71-12.31c6.25 0 10.43 3.57 10.43 9.68s-4.18 9.87-10.43 9.87h-3.76v-19.55h3.76Zm.05-5.73H52.22v31.02h10.15c9.96 0 16.92-6.44 16.92-15.6s-6.96-15.41-16.92-15.41m-32.48 18.85.89-6.67h6.96l-.85 6.67h-7Zm17.53-6.39v-5.31h-3.81l.94-7.14h-5.17l-.94 7.14h-6.96l.94-7.14h-5.17l-.94 7.14h-5.08v5.31h4.37l-.85 6.11h-4.51v5.31h3.81l-.94 7.14h5.12l.94-7.14h7l-.94 7.14h5.12l.94-7.14h5.08v-5.31h-4.32l.8-6.11h4.56Z"/>
</svg>