<svg xmlns="http://www.w3.org/2000/svg" id="Ebene_2" viewBox="0 0 421.77 367.81">
	<defs>
		<style>.cls-1,.cls-2{fill:#0b0500;stroke-width:0}.cls-2{fill:#dbfe87}</style>
	</defs>
	<path d="M125.34 27.5c-4.18-6.62-5.18-9.79-9.36-9.79-4.46 0-8.78 7.63-11.66 18.43l-14.83-3.02C93.51 14.4 103.16 0 117.42 0c10.37 0 15.26 5.76 18.14 10.37 4.18 6.62 5.18 9.79 9.36 9.79 4.46 0 8.78-7.63 11.66-18.43l14.83 3.02c-4.03 18.72-13.68 33.12-27.94 33.12-10.37 0-15.26-5.76-18.14-10.37ZM211.74 27.5c-4.18-6.62-5.18-9.79-9.36-9.79-4.46 0-8.78 7.63-11.66 18.43l-14.83-3.02C179.91 14.4 189.56 0 203.82 0c10.37 0 15.26 5.76 18.14 10.37 4.18 6.62 5.18 9.79 9.36 9.79 4.46 0 8.78-7.63 11.66-18.43l14.83 3.02c-4.03 18.72-13.68 33.12-27.94 33.12-10.37 0-15.26-5.76-18.14-10.37ZM298.13 27.5c-4.18-6.62-5.18-9.79-9.36-9.79-4.46 0-8.78 7.63-11.66 18.43l-14.83-3.02C266.31 14.4 275.96 0 290.22 0c10.37 0 15.26 5.76 18.14 10.37 4.18 6.62 5.18 9.79 9.36 9.79 4.46 0 8.78-7.63 11.66-18.43l14.83 3.02c-4.03 18.72-13.68 33.12-27.93 33.12-10.37 0-15.26-5.76-18.14-10.37Z" class="cls-1"/>
	<path d="M124.42 124.57H98.5l-7.06 42.19H70.13l16.7-100.51h21.31l-6.77 40.89h25.92l6.77-40.89h21.31l-16.7 100.51h-21.31l7.06-42.19ZM160.85 130.19c0-39.02 18.14-65.66 46.51-65.66 22.32 0 32.26 12.1 33.26 29.52l-20.59 4.18c-.58-9.5-3.17-16.42-13.54-16.42-11.81 0-17.71 10.08-20.45 26.21l-2.59 15.7c-.58 3.46-1.15 6.62-1.15 11.23 0 10.08 4.03 16.27 14.54 16.27 9.22 0 15.12-7.63 19.01-17.14l18.29 5.47c-7.92 18.86-19.3 28.94-38.74 28.94-23.62 0-34.56-14.25-34.56-38.3ZM281.66 126.15l-11.81 13.1-4.61 27.5h-21.31l16.7-100.51h21.31l-7.2 43.05h1.15l16.13-19.73 19.01-23.33h25.06l-37.44 44.64 22.32 55.87h-23.62l-15.7-40.61ZM0 293.15c0-1.58.29-3.89.86-7.34 1.01-6.05 6.05-11.52 16.56-11.52 9.5 0 13.25 4.32 13.25 9.65 0 1.58-.29 3.89-.86 7.34-1.01 6.05-6.05 11.52-16.56 11.52-9.5 0-13.25-4.32-13.25-9.65ZM76.89 233.68h-1.44l-11.23 67.39H45.64l16.7-100.51h25.63l11.66 67.39h1.44l11.23-67.39h18.58l-16.7 100.51H88.55l-11.66-67.39ZM202.17 301.07h-71.85l3.17-18.72 55.73-64.22h-43.78l2.88-17.57h68.97l-3.02 18.72-55.73 64.22h46.51l-2.88 17.57ZM214.41 287.39l13.39-13.54c5.9 7.63 15.84 11.38 24.77 11.38 10.94 0 16.7-5.62 16.7-14.83 0-6.62-3.6-9.36-11.66-11.23l-9.94-2.3c-14.54-3.31-20.88-12.82-20.88-25.2 0-19.87 14.83-32.83 38.74-32.83 14.4 0 26.93 5.33 32.69 14.11l-13.97 12.82c-4.32-6.05-11.09-9.65-19.73-9.65-10.51 0-15.7 5.18-15.7 13.25 0 5.76 3.17 8.35 12.1 10.66l9.5 2.45c14.26 3.6 21.02 11.81 21.02 25.49 0 20.59-14.69 34.85-40.18 34.85-16.56 0-30.82-5.76-36.86-15.41ZM347.03 191.64h20.59c-20.59 14.54-37.29 34.56-40.9 56.16l-2.3 13.68c-.58 3.46-.72 5.9-.72 8.93 0 18.86 10.94 38.88 22.46 50.4H327.3c-11.66-11.38-21.02-31.54-21.02-54.14 0-31.97 18.86-60.48 40.75-75.02ZM381.02 320.8h-20.59c20.59-14.54 37.29-34.56 40.89-56.16l2.3-13.68c.58-3.46.72-5.9.72-8.93 0-18.86-10.94-38.88-22.46-50.4h18.86c11.66 11.38 21.02 31.54 21.02 54.14 0 31.97-18.86 60.48-40.75 75.02Z" class="cls-2"/>
	<path d="M66.62 357.44c-4.18-6.62-5.18-9.79-9.36-9.79-4.46 0-8.78 7.63-11.66 18.43l-14.83-3.02c4.03-18.72 13.68-33.12 27.94-33.12 10.37 0 15.26 5.76 18.14 10.37 4.18 6.62 5.18 9.79 9.36 9.79 4.46 0 8.78-7.63 11.66-18.43l14.83 3.02c-4.03 18.72-13.68 33.12-27.94 33.12-10.37 0-15.26-5.76-18.14-10.37ZM153.02 357.44c-4.18-6.62-5.18-9.79-9.36-9.79-4.46 0-8.78 7.63-11.66 18.43l-14.83-3.02c4.03-18.72 13.68-33.12 27.94-33.12 10.37 0 15.26 5.76 18.14 10.37 4.18 6.62 5.18 9.79 9.36 9.79 4.46 0 8.78-7.63 11.66-18.43l14.83 3.02c-4.03 18.72-13.68 33.12-27.94 33.12-10.37 0-15.26-5.76-18.14-10.37ZM239.42 357.44c-4.18-6.62-5.18-9.79-9.36-9.79-4.46 0-8.78 7.63-11.66 18.43l-14.83-3.02c4.03-18.72 13.68-33.12 27.94-33.12 10.37 0 15.26 5.76 18.14 10.37 4.18 6.62 5.18 9.79 9.36 9.79 4.46 0 8.78-7.63 11.66-18.43l14.83 3.02c-4.03 18.72-13.68 33.12-27.94 33.12-10.37 0-15.26-5.76-18.14-10.37Z" class="cls-1"/>
</svg>