<?xml version="1.0" encoding="UTF-8"?>
<svg id="Ebene_1"
	xmlns="http://www.w3.org/2000/svg" viewBox="0 0 645.53 117.71">
	<defs>
		<style>.cls-1{fill:#dbfe87;stroke-width:0px;}</style>
	</defs>
	<path class="cls-1" d="m0,117.71l2.48-14.73h58.79l-2.48,14.73H0Z"/>
	<path class="cls-1" d="m122.41,57.8h-22.28l-6.06,36.27h-18.32L90.11,7.68h18.32l-5.82,35.15h22.28l5.82-35.15h18.32l-14.36,86.4h-18.32l6.06-36.27Z"/>
	<path class="cls-1" d="m153.73,62.63c0-33.54,15.6-56.44,39.98-56.44,19.18,0,27.73,10.4,28.59,25.37l-17.7,3.59c-.5-8.17-2.72-14.11-11.64-14.11-10.15,0-15.22,8.66-17.58,22.53l-2.23,13.49c-.5,2.97-.99,5.69-.99,9.65,0,8.66,3.47,13.99,12.5,13.99,7.92,0,13-6.56,16.34-14.73l15.72,4.7c-6.81,16.21-16.59,24.88-33.3,24.88-20.3,0-29.71-12.25-29.71-32.92Z"/>
	<path class="cls-1" d="m257.58,59.17l-10.15,11.26-3.96,23.64h-18.32l14.36-86.4h18.32l-6.19,37.01h.99l13.86-16.96,16.34-20.05h21.54l-32.18,38.37,19.18,48.02h-20.3l-13.49-34.9Z"/>
	<path class="cls-1" d="m329.28,36.14h-1.24l-9.65,57.93h-15.97l14.36-86.4h22.03l10.03,57.93h1.24l9.65-57.93h15.97l-14.36,86.4h-22.03l-10.03-57.93Z"/>
	<path class="cls-1" d="m441.91,94.07h-61.76l2.72-16.09,47.9-55.2h-37.63l2.48-15.1h59.29l-2.6,16.09-47.9,55.2h39.98l-2.48,15.1Z"/>
	<path class="cls-1" d="m454.91,82.31l11.51-11.63c5.07,6.56,13.62,9.78,21.29,9.78,9.41,0,14.36-4.83,14.36-12.75,0-5.69-3.09-8.05-10.03-9.65l-8.54-1.98c-12.5-2.85-17.95-11.02-17.95-21.66,0-17.08,12.75-28.22,33.3-28.22,12.38,0,23.15,4.58,28.1,12.13l-12.01,11.02c-3.71-5.2-9.53-8.29-16.96-8.29-9.04,0-13.49,4.46-13.49,11.39,0,4.95,2.72,7.18,10.4,9.16l8.17,2.1c12.25,3.09,18.07,10.15,18.07,21.91,0,17.7-12.63,29.95-34.53,29.95-14.23,0-26.49-4.95-31.69-13.24Z"/>
	<path class="cls-1" d="m571.38,0h17.7c-17.7,12.5-32.06,29.71-35.15,48.27l-1.98,11.76c-.49,2.97-.62,5.07-.62,7.67,0,16.21,9.41,33.42,19.31,43.32h-16.21c-10.03-9.78-18.07-27.11-18.07-46.54,0-27.48,16.21-51.99,35.03-64.49Z"/>
	<path class="cls-1" d="m610.5,111.03h-17.7c17.7-12.5,32.06-29.71,35.15-48.27l1.98-11.76c.5-2.97.62-5.07.62-7.67,0-16.21-9.41-33.42-19.31-43.32h16.21c10.03,9.78,18.07,27.11,18.07,46.54,0,27.48-16.21,51.99-35.03,64.49Z"/>
</svg>