<svg xmlns="http://www.w3.org/2000/svg" xml:space="preserve" id="Ebene_1" x="0" y="0" style="enable-background:new 0 0 1250.4 233.2" version="1.1" viewBox="0 0 1250.4 233.2">
	<style>.st0{fill:#dbfe87}</style>
	<path d="M61.8 133.7c-7.2-11.6-8.9-17.2-16.1-17.2-7.7 0-15.1 13.4-20.1 32.3L0 143.6c6.9-32.8 23.6-58 48.1-58 17.9 0 26.3 10.1 31.3 18.2 7.2 11.6 8.9 17.2 16.1 17.2 7.7 0 15.1-13.4 20.1-32.3l25.6 5.3c-6.9 32.8-23.6 58-48.1 58-17.9-.1-26.3-10.2-31.3-18.3zM184.6.5h36.2L206.7 88h1.2c9.7-21.2 21.3-34.1 41.7-34.1 25.1 0 35 17.4 35 37.6 0 7.3-.7 14.1-2.7 26.2l-11.4 69.4h-36.2l12.2-73.9c.7-4.5 1.7-9.3 1.7-15.6 0-6.8-3.7-15.4-14.9-15.4-8.4 0-14.4 4.3-20.1 11.9-3.7 5-9.9 14.6-11.7 25.2l-11.2 67.9H154L184.6.5zM309.8 134.7c0-44.4 25.3-81.2 71-81.2 29.3 0 44.2 13.4 49.6 33l-29.5 14.1c-3.5-10.8-8.7-17.7-23.1-17.7-14.1 0-24.6 9.6-27.5 27.8l-2.5 15.1c-.5 3-1 7.8-1 11.9 0 13.4 6.2 22.5 22.6 22.5 10.4 0 17.9-3.5 36-27.8l22.6 14.9c-16.9 27.2-33.8 42.4-64.5 42.4-34.9 0-53.7-20.2-53.7-55zM475.7 0H512l-14.1 87.5h1.5c8.7-19.4 22.3-34.1 44.2-34.1 21.1 0 33.3 13.6 33.3 30.8 0 24-15.4 38.6-43.9 47.4l10.4 27.8 3.7.8 20.4-20.2 17.4 17.4-12.9 14.1c-10.7 11.6-21.6 18.2-34.7 18.2-15.6 0-23.8-9.6-29.5-25.7l-12.4-34.6c29.5-8.8 45.4-17.7 45.4-33.8 0-8.6-6-14.6-16.6-14.6-6.2 0-12.4 2.5-19.9 12.1-5 6.3-9.4 13.6-11.4 25.7l-11.2 67.9h-36.2L475.7 0zM1126.5 6.9h35.5c-35.5 25.5-64.3 60.6-70.5 98.4l-4 24c-1 6.1-1.2 10.3-1.2 15.6 0 33 18.9 68.1 38.7 88.3h-32.5c-20.1-19.9-36.2-55.3-36.2-94.9-.1-55.9 32.4-105.9 70.2-131.4zM1180.2 233.2h-35.5c35.5-25.5 64.3-60.5 70.5-98.4l4-24c1-6.1 1.2-10.3 1.2-15.6 0-33.1-18.9-68.1-38.7-88.3h32.5c20.1 19.9 36.2 55.3 36.2 94.9 0 56-32.5 106-70.2 131.4zM606.1 186.7l21.3-130.2h36.2l-5 31h1.2c9.7-21.2 21.3-34.1 41.7-34.1 25.1 0 35 17.4 35 37.6 0 7.3-.7 14.1-2.7 26.2l-11.4 69.4h-36.2l12.2-73.9c.7-4.5 1.7-9.3 1.7-15.6 0-6.8-3.7-15.4-14.9-15.4-8.4 0-14.4 4.3-20.1 11.9-3.7 5-9.9 14.6-11.7 25.2l-11.2 67.9h-36.1zM817 180.6l-25.1-13.1-1 .8-3 18.4h-31l5-30.3 79.4-64.1c-9.4-7.6-16.9-10.3-27.5-10.3-8.4 0-15.9 4.5-15.9 19.2h-26.8v-2.3c0-29 15.9-45.4 40.5-45.4 15.4 0 32 4.8 49.1 22.2l.5.5 1.5-1.3 3-18.4h31l-5 30.3-80.4 65.1 48.6 9.3 2.7-3.3-7.4-22.2 21.1-9.3 3.7 6.8c5.5 9.8 7.4 17.2 7.4 24.7 0 16.4-12.2 31.8-32.3 31.8-11.8 0-24.7-2-38.1-9.1zM909.8 168.5l20.4-20.4c7.2 10.3 20.8 15.6 36 15.6 14.9 0 24.3-5 24.3-14.4 0-7.1-5.5-9.6-13.2-11.4l-18.4-4c-19.4-4.3-34.5-12.6-34.5-35.6 0-29.3 24.8-44.9 58.1-44.9 22.8 0 42.2 7.1 50.9 18.4l-19.9 20.7c-5.7-7.3-17.6-13.1-32-13.1-12.9 0-21.3 4.8-21.3 14.1 0 7.1 4.7 9.1 12.7 10.8l19.1 4.3c21.3 4.8 34.5 13.9 34.5 35.1 0 28.8-24.6 45.9-62.8 45.9-25.6.1-45.2-7.5-53.9-21.1z" class="st0"/>
</svg>