<svg xmlns="http://www.w3.org/2000/svg" xml:space="preserve" style="enable-background:new 0 0 58 58" viewBox="0 0 58 58">
	<path d="M29 0C13 0 0 13 0 29s13 29 29 29 29-13 29-29S45 0 29 0zm23 41.3h-7.8c.9-3.3 1.4-6.9 1.5-10.8H55c-.2 3.9-1.3 7.5-3 10.8zM3 30.5h9.3c.1 3.9.6 7.5 1.5 10.8H6C4.3 38 3.2 34.4 3 30.5zm3-13.8h7.8c-.9 3.3-1.4 6.9-1.5 10.8H3c.2-3.9 1.3-7.5 3-10.8zm24.5-2.9V3.1c3.9.8 7.4 4.9 9.6 10.7h-9.6zm10.6 2.9c1 3.3 1.5 6.9 1.7 10.8H30.5V16.7h10.6zM27.5 3.1v10.7h-9.6c2.3-5.8 5.7-9.9 9.6-10.7zm0 13.6v10.8H15.3c.1-3.9.7-7.5 1.7-10.8h10.5zM15.3 30.5h12.3v10.8H16.9c-.9-3.3-1.5-7-1.6-10.8zm12.2 13.7v10.7c-3.9-.8-7.4-4.9-9.6-10.7h9.6zm3 10.7V44.2h9.6c-2.3 5.8-5.7 9.9-9.6 10.7zm0-13.6V30.5h12.3c-.1 3.9-.7 7.5-1.7 10.8H30.5zm15.2-13.8c-.1-3.9-.6-7.5-1.5-10.8H52c1.7 3.3 2.8 6.9 3 10.8h-9.3zm4.4-13.7h-6.8c-1.3-3.7-3-6.8-5.1-9.1 4.8 1.7 8.9 4.9 11.9 9.1zM19.8 4.6c-2.1 2.3-3.8 5.5-5.1 9.1H7.9c3-4.1 7.1-7.3 11.9-9.1zM7.9 44.2h6.8c1.3 3.7 3 6.8 5.1 9.1-4.8-1.7-8.9-4.9-11.9-9.1zm30.3 9.2c2.1-2.3 3.8-5.5 5.1-9.1h6.8c-3 4.1-7.1 7.3-11.9 9.1z"/>
</svg>